<mxfile host="app.diagrams.net" agent="Mozilla/5.0 (Windows NT 10.0; Win64; x64) AppleWebKit/537.36 (KHTML, like Gecko) Chrome/133.0.0.0 Safari/537.36" version="26.0.15">
  <diagram name="Page-1" id="IQwICIjv8pz0FX_GXAi3">
    <mxGraphModel dx="3497" dy="3037" grid="1" gridSize="10" guides="1" tooltips="1" connect="1" arrows="1" fold="1" page="1" pageScale="1" pageWidth="850" pageHeight="1100" math="0" shadow="0">
      <root>
        <mxCell id="0" />
        <mxCell id="1" parent="0" />
        <mxCell id="XlU7eiJMvj6CBkXYbZNx-115" style="edgeStyle=orthogonalEdgeStyle;rounded=0;orthogonalLoop=1;jettySize=auto;html=1;exitX=0.5;exitY=1;exitDx=0;exitDy=0;" edge="1" parent="1" source="XlU7eiJMvj6CBkXYbZNx-2">
          <mxGeometry relative="1" as="geometry">
            <mxPoint x="70" y="380" as="targetPoint" />
          </mxGeometry>
        </mxCell>
        <mxCell id="XlU7eiJMvj6CBkXYbZNx-2" value="" style="shape=offPageConnector;whiteSpace=wrap;html=1;rotation=-90;size=0.55;" vertex="1" parent="1">
          <mxGeometry x="-50" y="630" width="35" height="50" as="geometry" />
        </mxCell>
        <mxCell id="XlU7eiJMvj6CBkXYbZNx-4" value="Cathodes" style="text;strokeColor=none;fillColor=none;html=1;fontSize=24;fontStyle=1;verticalAlign=middle;align=center;" vertex="1" parent="1">
          <mxGeometry x="-73.75" y="590" width="82.5" height="20" as="geometry" />
        </mxCell>
        <mxCell id="XlU7eiJMvj6CBkXYbZNx-123" style="edgeStyle=orthogonalEdgeStyle;rounded=0;orthogonalLoop=1;jettySize=auto;html=1;exitX=0;exitY=0.75;exitDx=0;exitDy=0;exitPerimeter=0;entryX=0;entryY=1;entryDx=0;entryDy=0;" edge="1" parent="1" source="XlU7eiJMvj6CBkXYbZNx-13" target="XlU7eiJMvj6CBkXYbZNx-87">
          <mxGeometry relative="1" as="geometry">
            <Array as="points">
              <mxPoint x="310" y="120" />
              <mxPoint x="310" y="1147" />
            </Array>
          </mxGeometry>
        </mxCell>
        <mxCell id="XlU7eiJMvj6CBkXYbZNx-13" value="num[3]&#39;&lt;div&gt;num[2]&#39;&lt;/div&gt;&lt;div&gt;num[1]&#39;&lt;/div&gt;&lt;div&gt;num[0]&lt;/div&gt;" style="shape=or;whiteSpace=wrap;html=1;" vertex="1" parent="1">
          <mxGeometry x="460" y="60" width="60" height="80" as="geometry" />
        </mxCell>
        <mxCell id="XlU7eiJMvj6CBkXYbZNx-138" style="edgeStyle=orthogonalEdgeStyle;rounded=0;orthogonalLoop=1;jettySize=auto;html=1;exitX=0;exitY=0.25;exitDx=0;exitDy=0;exitPerimeter=0;" edge="1" parent="1" source="XlU7eiJMvj6CBkXYbZNx-14">
          <mxGeometry relative="1" as="geometry">
            <mxPoint x="250" y="210" as="targetPoint" />
          </mxGeometry>
        </mxCell>
        <mxCell id="XlU7eiJMvj6CBkXYbZNx-14" value="num[3]&#39;&lt;div&gt;num[2]&lt;/div&gt;&lt;div&gt;num[1]&#39;&lt;/div&gt;&lt;div&gt;num[0]&#39;&lt;/div&gt;" style="shape=or;whiteSpace=wrap;html=1;" vertex="1" parent="1">
          <mxGeometry x="460" y="160" width="60" height="80" as="geometry" />
        </mxCell>
        <mxCell id="XlU7eiJMvj6CBkXYbZNx-145" style="edgeStyle=orthogonalEdgeStyle;rounded=0;orthogonalLoop=1;jettySize=auto;html=1;exitX=0;exitY=0.25;exitDx=0;exitDy=0;exitPerimeter=0;" edge="1" parent="1" source="XlU7eiJMvj6CBkXYbZNx-16">
          <mxGeometry relative="1" as="geometry">
            <mxPoint x="200" y="330" as="targetPoint" />
          </mxGeometry>
        </mxCell>
        <mxCell id="XlU7eiJMvj6CBkXYbZNx-146" style="edgeStyle=orthogonalEdgeStyle;rounded=0;orthogonalLoop=1;jettySize=auto;html=1;exitX=0;exitY=0.5;exitDx=0;exitDy=0;exitPerimeter=0;" edge="1" parent="1" source="XlU7eiJMvj6CBkXYbZNx-16">
          <mxGeometry relative="1" as="geometry">
            <mxPoint x="250" y="300.33333333333326" as="targetPoint" />
          </mxGeometry>
        </mxCell>
        <mxCell id="XlU7eiJMvj6CBkXYbZNx-148" style="edgeStyle=orthogonalEdgeStyle;rounded=0;orthogonalLoop=1;jettySize=auto;html=1;exitX=0;exitY=0.75;exitDx=0;exitDy=0;exitPerimeter=0;" edge="1" parent="1" source="XlU7eiJMvj6CBkXYbZNx-16">
          <mxGeometry relative="1" as="geometry">
            <mxPoint x="310" y="370" as="targetPoint" />
            <Array as="points">
              <mxPoint x="460" y="350" />
              <mxPoint x="310" y="350" />
            </Array>
          </mxGeometry>
        </mxCell>
        <mxCell id="XlU7eiJMvj6CBkXYbZNx-16" value="num[3]&lt;div&gt;num[2]&lt;/div&gt;&lt;div&gt;num[1]&#39;&lt;/div&gt;&lt;div&gt;num[0]&lt;/div&gt;" style="shape=or;whiteSpace=wrap;html=1;" vertex="1" parent="1">
          <mxGeometry x="460" y="260" width="60" height="80" as="geometry" />
        </mxCell>
        <mxCell id="XlU7eiJMvj6CBkXYbZNx-153" style="edgeStyle=orthogonalEdgeStyle;rounded=0;orthogonalLoop=1;jettySize=auto;html=1;exitX=0;exitY=0.25;exitDx=0;exitDy=0;exitPerimeter=0;" edge="1" parent="1" source="XlU7eiJMvj6CBkXYbZNx-18">
          <mxGeometry relative="1" as="geometry">
            <mxPoint x="200" y="379.66666666666697" as="targetPoint" />
          </mxGeometry>
        </mxCell>
        <mxCell id="XlU7eiJMvj6CBkXYbZNx-155" style="edgeStyle=orthogonalEdgeStyle;rounded=0;orthogonalLoop=1;jettySize=auto;html=1;exitX=0;exitY=0.75;exitDx=0;exitDy=0;exitPerimeter=0;" edge="1" parent="1" source="XlU7eiJMvj6CBkXYbZNx-18">
          <mxGeometry relative="1" as="geometry">
            <mxPoint x="280" y="470" as="targetPoint" />
            <Array as="points">
              <mxPoint x="460" y="410" />
              <mxPoint x="281" y="410" />
              <mxPoint x="281" y="470" />
            </Array>
          </mxGeometry>
        </mxCell>
        <mxCell id="XlU7eiJMvj6CBkXYbZNx-156" style="edgeStyle=orthogonalEdgeStyle;rounded=0;orthogonalLoop=1;jettySize=auto;html=1;exitX=0;exitY=0.75;exitDx=0;exitDy=0;exitPerimeter=0;" edge="1" parent="1" source="XlU7eiJMvj6CBkXYbZNx-18">
          <mxGeometry relative="1" as="geometry">
            <mxPoint x="310" y="460" as="targetPoint" />
          </mxGeometry>
        </mxCell>
        <mxCell id="XlU7eiJMvj6CBkXYbZNx-18" value="num[3]&lt;div&gt;num[2]&#39;&lt;/div&gt;&lt;div&gt;num[1]&lt;/div&gt;&lt;div&gt;num[0]&lt;/div&gt;" style="shape=or;whiteSpace=wrap;html=1;" vertex="1" parent="1">
          <mxGeometry x="460" y="360" width="60" height="80" as="geometry" />
        </mxCell>
        <mxCell id="XlU7eiJMvj6CBkXYbZNx-157" style="edgeStyle=orthogonalEdgeStyle;rounded=0;orthogonalLoop=1;jettySize=auto;html=1;exitX=0;exitY=0.25;exitDx=0;exitDy=0;exitPerimeter=0;" edge="1" parent="1" source="XlU7eiJMvj6CBkXYbZNx-19">
          <mxGeometry relative="1" as="geometry">
            <mxPoint x="240" y="510" as="targetPoint" />
          </mxGeometry>
        </mxCell>
        <mxCell id="XlU7eiJMvj6CBkXYbZNx-159" style="edgeStyle=orthogonalEdgeStyle;rounded=0;orthogonalLoop=1;jettySize=auto;html=1;exitX=0;exitY=0.5;exitDx=0;exitDy=0;exitPerimeter=0;" edge="1" parent="1" source="XlU7eiJMvj6CBkXYbZNx-19">
          <mxGeometry relative="1" as="geometry">
            <mxPoint x="280" y="530" as="targetPoint" />
          </mxGeometry>
        </mxCell>
        <mxCell id="XlU7eiJMvj6CBkXYbZNx-19" value="num[2]&lt;div&gt;num[1]&lt;/div&gt;&lt;div&gt;num[0]&#39;&lt;/div&gt;&lt;div&gt;&lt;br&gt;&lt;/div&gt;" style="shape=or;whiteSpace=wrap;html=1;" vertex="1" parent="1">
          <mxGeometry x="460" y="480" width="60" height="80" as="geometry" />
        </mxCell>
        <mxCell id="XlU7eiJMvj6CBkXYbZNx-160" style="edgeStyle=orthogonalEdgeStyle;rounded=0;orthogonalLoop=1;jettySize=auto;html=1;exitX=0;exitY=0.25;exitDx=0;exitDy=0;exitPerimeter=0;entryX=1;entryY=0.25;entryDx=0;entryDy=0;" edge="1" parent="1" source="XlU7eiJMvj6CBkXYbZNx-20" target="XlU7eiJMvj6CBkXYbZNx-128">
          <mxGeometry relative="1" as="geometry" />
        </mxCell>
        <mxCell id="XlU7eiJMvj6CBkXYbZNx-161" style="edgeStyle=orthogonalEdgeStyle;rounded=0;orthogonalLoop=1;jettySize=auto;html=1;exitX=0;exitY=0.5;exitDx=0;exitDy=0;exitPerimeter=0;" edge="1" parent="1" source="XlU7eiJMvj6CBkXYbZNx-20">
          <mxGeometry relative="1" as="geometry">
            <mxPoint x="280" y="670" as="targetPoint" />
          </mxGeometry>
        </mxCell>
        <mxCell id="XlU7eiJMvj6CBkXYbZNx-162" style="edgeStyle=orthogonalEdgeStyle;rounded=0;orthogonalLoop=1;jettySize=auto;html=1;exitX=0;exitY=0.75;exitDx=0;exitDy=0;exitPerimeter=0;" edge="1" parent="1" source="XlU7eiJMvj6CBkXYbZNx-20">
          <mxGeometry relative="1" as="geometry">
            <mxPoint x="310" y="690" as="targetPoint" />
          </mxGeometry>
        </mxCell>
        <mxCell id="XlU7eiJMvj6CBkXYbZNx-20" value="num[3]&lt;div&gt;num[1]&lt;/div&gt;&lt;div&gt;num[0]&lt;/div&gt;" style="shape=or;whiteSpace=wrap;html=1;" vertex="1" parent="1">
          <mxGeometry x="460" y="580" width="60" height="80" as="geometry" />
        </mxCell>
        <mxCell id="XlU7eiJMvj6CBkXYbZNx-163" style="edgeStyle=orthogonalEdgeStyle;rounded=0;orthogonalLoop=1;jettySize=auto;html=1;exitX=0;exitY=0.25;exitDx=0;exitDy=0;exitPerimeter=0;" edge="1" parent="1" source="XlU7eiJMvj6CBkXYbZNx-21">
          <mxGeometry relative="1" as="geometry">
            <mxPoint x="200" y="699.666666666667" as="targetPoint" />
          </mxGeometry>
        </mxCell>
        <mxCell id="XlU7eiJMvj6CBkXYbZNx-164" style="edgeStyle=orthogonalEdgeStyle;rounded=0;orthogonalLoop=1;jettySize=auto;html=1;exitX=0;exitY=0.5;exitDx=0;exitDy=0;exitPerimeter=0;" edge="1" parent="1" source="XlU7eiJMvj6CBkXYbZNx-21">
          <mxGeometry relative="1" as="geometry">
            <mxPoint x="250" y="719.666666666667" as="targetPoint" />
          </mxGeometry>
        </mxCell>
        <mxCell id="XlU7eiJMvj6CBkXYbZNx-21" value="num[3]&lt;div&gt;num[2]&lt;/div&gt;&lt;div&gt;num[0]&#39;&lt;/div&gt;" style="shape=or;whiteSpace=wrap;html=1;" vertex="1" parent="1">
          <mxGeometry x="460" y="680" width="60" height="80" as="geometry" />
        </mxCell>
        <mxCell id="XlU7eiJMvj6CBkXYbZNx-168" style="edgeStyle=orthogonalEdgeStyle;rounded=0;orthogonalLoop=1;jettySize=auto;html=1;exitX=0;exitY=0.5;exitDx=0;exitDy=0;exitPerimeter=0;" edge="1" parent="1" source="XlU7eiJMvj6CBkXYbZNx-22">
          <mxGeometry relative="1" as="geometry">
            <mxPoint x="250" y="810" as="targetPoint" />
          </mxGeometry>
        </mxCell>
        <mxCell id="XlU7eiJMvj6CBkXYbZNx-170" style="edgeStyle=orthogonalEdgeStyle;rounded=0;orthogonalLoop=1;jettySize=auto;html=1;exitX=0;exitY=0.75;exitDx=0;exitDy=0;exitPerimeter=0;" edge="1" parent="1" source="XlU7eiJMvj6CBkXYbZNx-22">
          <mxGeometry relative="1" as="geometry">
            <mxPoint x="310" y="830" as="targetPoint" />
          </mxGeometry>
        </mxCell>
        <mxCell id="XlU7eiJMvj6CBkXYbZNx-22" value="num[3]&#39;&lt;div&gt;num[2]&lt;/div&gt;&lt;div&gt;num[1]&#39;&lt;/div&gt;&lt;div&gt;num[0]&lt;/div&gt;" style="shape=or;whiteSpace=wrap;html=1;" vertex="1" parent="1">
          <mxGeometry x="460" y="780" width="60" height="80" as="geometry" />
        </mxCell>
        <mxCell id="XlU7eiJMvj6CBkXYbZNx-173" style="edgeStyle=orthogonalEdgeStyle;rounded=0;orthogonalLoop=1;jettySize=auto;html=1;exitX=0;exitY=0.75;exitDx=0;exitDy=0;exitPerimeter=0;" edge="1" parent="1" source="XlU7eiJMvj6CBkXYbZNx-23">
          <mxGeometry relative="1" as="geometry">
            <mxPoint x="270" y="939.666666666667" as="targetPoint" />
          </mxGeometry>
        </mxCell>
        <mxCell id="XlU7eiJMvj6CBkXYbZNx-23" value="num[3]&#39;&lt;div&gt;num[2]&#39;&lt;/div&gt;&lt;div&gt;num[1]&lt;/div&gt;&lt;div&gt;num[0]&#39;&lt;/div&gt;" style="shape=or;whiteSpace=wrap;html=1;" vertex="1" parent="1">
          <mxGeometry x="460" y="880" width="60" height="80" as="geometry" />
        </mxCell>
        <mxCell id="XlU7eiJMvj6CBkXYbZNx-175" style="edgeStyle=orthogonalEdgeStyle;rounded=0;orthogonalLoop=1;jettySize=auto;html=1;exitX=0;exitY=0.25;exitDx=0;exitDy=0;exitPerimeter=0;" edge="1" parent="1" source="XlU7eiJMvj6CBkXYbZNx-24">
          <mxGeometry relative="1" as="geometry">
            <mxPoint x="190" y="990" as="targetPoint" />
          </mxGeometry>
        </mxCell>
        <mxCell id="XlU7eiJMvj6CBkXYbZNx-176" style="edgeStyle=orthogonalEdgeStyle;rounded=0;orthogonalLoop=1;jettySize=auto;html=1;exitX=0;exitY=0.5;exitDx=0;exitDy=0;exitPerimeter=0;" edge="1" parent="1" source="XlU7eiJMvj6CBkXYbZNx-24">
          <mxGeometry relative="1" as="geometry">
            <mxPoint x="240" y="1019.666666666667" as="targetPoint" />
          </mxGeometry>
        </mxCell>
        <mxCell id="XlU7eiJMvj6CBkXYbZNx-24" value="num[3]&lt;div&gt;num[2]&lt;/div&gt;&lt;div&gt;num[1]&lt;/div&gt;" style="shape=or;whiteSpace=wrap;html=1;" vertex="1" parent="1">
          <mxGeometry x="460" y="980" width="60" height="80" as="geometry" />
        </mxCell>
        <mxCell id="XlU7eiJMvj6CBkXYbZNx-121" style="edgeStyle=orthogonalEdgeStyle;rounded=0;orthogonalLoop=1;jettySize=auto;html=1;exitX=0;exitY=0.25;exitDx=0;exitDy=0;exitPerimeter=0;" edge="1" parent="1" source="XlU7eiJMvj6CBkXYbZNx-25">
          <mxGeometry relative="1" as="geometry">
            <mxPoint x="200" y="397.27272727272725" as="targetPoint" />
          </mxGeometry>
        </mxCell>
        <mxCell id="XlU7eiJMvj6CBkXYbZNx-25" value="num[3]&lt;div&gt;num[2]&lt;/div&gt;&lt;div&gt;num[0]&#39;&lt;/div&gt;" style="shape=or;whiteSpace=wrap;html=1;" vertex="1" parent="1">
          <mxGeometry x="460" y="1080" width="60" height="80" as="geometry" />
        </mxCell>
        <mxCell id="XlU7eiJMvj6CBkXYbZNx-26" value="num[3]&#39;&lt;div&gt;num[2]&#39;&lt;/div&gt;&lt;div&gt;num[1]&#39;&lt;/div&gt;&lt;div&gt;num[0]&lt;/div&gt;" style="shape=or;whiteSpace=wrap;html=1;" vertex="1" parent="1">
          <mxGeometry x="1640" y="-100" width="60" height="80" as="geometry" />
        </mxCell>
        <mxCell id="XlU7eiJMvj6CBkXYbZNx-214" style="edgeStyle=orthogonalEdgeStyle;rounded=0;orthogonalLoop=1;jettySize=auto;html=1;exitX=0;exitY=0.5;exitDx=0;exitDy=0;exitPerimeter=0;" edge="1" parent="1" source="XlU7eiJMvj6CBkXYbZNx-27">
          <mxGeometry relative="1" as="geometry">
            <mxPoint x="1320" y="30" as="targetPoint" />
          </mxGeometry>
        </mxCell>
        <mxCell id="XlU7eiJMvj6CBkXYbZNx-27" value="num[3]&#39;&lt;div&gt;num[2]&lt;/div&gt;&lt;div&gt;num[1]&#39;&lt;/div&gt;&lt;div&gt;num[0]&#39;&lt;/div&gt;" style="shape=or;whiteSpace=wrap;html=1;" vertex="1" parent="1">
          <mxGeometry x="1640" width="60" height="80" as="geometry" />
        </mxCell>
        <mxCell id="XlU7eiJMvj6CBkXYbZNx-218" style="edgeStyle=orthogonalEdgeStyle;rounded=0;orthogonalLoop=1;jettySize=auto;html=1;exitX=0;exitY=0.25;exitDx=0;exitDy=0;exitPerimeter=0;" edge="1" parent="1" source="XlU7eiJMvj6CBkXYbZNx-28">
          <mxGeometry relative="1" as="geometry">
            <mxPoint x="1280" y="130" as="targetPoint" />
          </mxGeometry>
        </mxCell>
        <mxCell id="XlU7eiJMvj6CBkXYbZNx-219" style="edgeStyle=orthogonalEdgeStyle;rounded=0;orthogonalLoop=1;jettySize=auto;html=1;exitX=0;exitY=0.75;exitDx=0;exitDy=0;exitPerimeter=0;" edge="1" parent="1" source="XlU7eiJMvj6CBkXYbZNx-28">
          <mxGeometry relative="1" as="geometry">
            <mxPoint x="1340" y="180" as="targetPoint" />
          </mxGeometry>
        </mxCell>
        <mxCell id="XlU7eiJMvj6CBkXYbZNx-28" value="num[3]&lt;div&gt;num[2]&#39;&lt;/div&gt;&lt;div&gt;num[1]&lt;/div&gt;&lt;div&gt;num[0]&#39;&lt;/div&gt;" style="shape=or;whiteSpace=wrap;html=1;" vertex="1" parent="1">
          <mxGeometry x="1640" y="100" width="60" height="80" as="geometry" />
        </mxCell>
        <mxCell id="XlU7eiJMvj6CBkXYbZNx-221" style="edgeStyle=orthogonalEdgeStyle;rounded=0;orthogonalLoop=1;jettySize=auto;html=1;exitX=0;exitY=0.25;exitDx=0;exitDy=0;exitPerimeter=0;" edge="1" parent="1" source="XlU7eiJMvj6CBkXYbZNx-29">
          <mxGeometry relative="1" as="geometry">
            <mxPoint x="1320" y="240" as="targetPoint" />
          </mxGeometry>
        </mxCell>
        <mxCell id="XlU7eiJMvj6CBkXYbZNx-222" style="edgeStyle=orthogonalEdgeStyle;rounded=0;orthogonalLoop=1;jettySize=auto;html=1;exitX=0;exitY=0.5;exitDx=0;exitDy=0;exitPerimeter=0;" edge="1" parent="1" source="XlU7eiJMvj6CBkXYbZNx-29">
          <mxGeometry relative="1" as="geometry">
            <mxPoint x="1370" y="270" as="targetPoint" />
          </mxGeometry>
        </mxCell>
        <mxCell id="XlU7eiJMvj6CBkXYbZNx-223" style="edgeStyle=orthogonalEdgeStyle;rounded=0;orthogonalLoop=1;jettySize=auto;html=1;exitX=0;exitY=0.75;exitDx=0;exitDy=0;exitPerimeter=0;" edge="1" parent="1" source="XlU7eiJMvj6CBkXYbZNx-29">
          <mxGeometry relative="1" as="geometry">
            <mxPoint x="1370" y="310" as="targetPoint" />
            <Array as="points">
              <mxPoint x="1640" y="300" />
              <mxPoint x="1371" y="300" />
            </Array>
          </mxGeometry>
        </mxCell>
        <mxCell id="XlU7eiJMvj6CBkXYbZNx-29" value="num[2]&lt;div&gt;num[1]&lt;/div&gt;&lt;div&gt;num[0]&lt;/div&gt;" style="shape=or;whiteSpace=wrap;html=1;" vertex="1" parent="1">
          <mxGeometry x="1640" y="190" width="60" height="80" as="geometry" />
        </mxCell>
        <mxCell id="XlU7eiJMvj6CBkXYbZNx-225" style="edgeStyle=orthogonalEdgeStyle;rounded=0;orthogonalLoop=1;jettySize=auto;html=1;exitX=0;exitY=0.75;exitDx=0;exitDy=0;exitPerimeter=0;" edge="1" parent="1" source="XlU7eiJMvj6CBkXYbZNx-30">
          <mxGeometry relative="1" as="geometry">
            <mxPoint x="1370" y="370" as="targetPoint" />
          </mxGeometry>
        </mxCell>
        <mxCell id="XlU7eiJMvj6CBkXYbZNx-30" value="num[3]&#39;&lt;div&gt;num[0]&lt;/div&gt;" style="shape=or;whiteSpace=wrap;html=1;" vertex="1" parent="1">
          <mxGeometry x="1640" y="310" width="60" height="80" as="geometry" />
        </mxCell>
        <mxCell id="XlU7eiJMvj6CBkXYbZNx-228" style="edgeStyle=orthogonalEdgeStyle;rounded=0;orthogonalLoop=1;jettySize=auto;html=1;exitX=0;exitY=0.75;exitDx=0;exitDy=0;exitPerimeter=0;" edge="1" parent="1" source="XlU7eiJMvj6CBkXYbZNx-31">
          <mxGeometry relative="1" as="geometry">
            <mxPoint x="1370" y="490" as="targetPoint" />
          </mxGeometry>
        </mxCell>
        <mxCell id="XlU7eiJMvj6CBkXYbZNx-31" value="num[2]&#39;&lt;div&gt;num[1]&#39;&lt;/div&gt;&lt;div&gt;num[0]&lt;/div&gt;" style="shape=or;whiteSpace=wrap;html=1;" vertex="1" parent="1">
          <mxGeometry x="1640" y="410" width="60" height="80" as="geometry" />
        </mxCell>
        <mxCell id="XlU7eiJMvj6CBkXYbZNx-230" style="edgeStyle=orthogonalEdgeStyle;rounded=0;orthogonalLoop=1;jettySize=auto;html=1;exitX=0;exitY=0.5;exitDx=0;exitDy=0;exitPerimeter=0;" edge="1" parent="1" source="XlU7eiJMvj6CBkXYbZNx-32">
          <mxGeometry relative="1" as="geometry">
            <mxPoint x="1320" y="550" as="targetPoint" />
          </mxGeometry>
        </mxCell>
        <mxCell id="XlU7eiJMvj6CBkXYbZNx-32" value="num[3]&#39;&lt;div&gt;num[2]&lt;/div&gt;&lt;div&gt;num[1]&#39;&lt;/div&gt;" style="shape=or;whiteSpace=wrap;html=1;" vertex="1" parent="1">
          <mxGeometry x="1640" y="500" width="60" height="80" as="geometry" />
        </mxCell>
        <mxCell id="XlU7eiJMvj6CBkXYbZNx-234" style="edgeStyle=orthogonalEdgeStyle;rounded=0;orthogonalLoop=1;jettySize=auto;html=1;exitX=0;exitY=0.75;exitDx=0;exitDy=0;exitPerimeter=0;" edge="1" parent="1" source="XlU7eiJMvj6CBkXYbZNx-33">
          <mxGeometry relative="1" as="geometry">
            <mxPoint x="1370" y="680" as="targetPoint" />
          </mxGeometry>
        </mxCell>
        <mxCell id="XlU7eiJMvj6CBkXYbZNx-33" value="num[3]&#39;&lt;div&gt;num[2]&#39;&lt;/div&gt;&lt;div&gt;num[0]&lt;/div&gt;&lt;div&gt;&lt;br&gt;&lt;/div&gt;" style="shape=or;whiteSpace=wrap;html=1;" vertex="1" parent="1">
          <mxGeometry x="1640" y="610" width="60" height="80" as="geometry" />
        </mxCell>
        <mxCell id="XlU7eiJMvj6CBkXYbZNx-237" style="edgeStyle=orthogonalEdgeStyle;rounded=0;orthogonalLoop=1;jettySize=auto;html=1;exitX=0;exitY=0.75;exitDx=0;exitDy=0;exitPerimeter=0;" edge="1" parent="1" source="XlU7eiJMvj6CBkXYbZNx-34">
          <mxGeometry relative="1" as="geometry">
            <mxPoint x="1340" y="790" as="targetPoint" />
          </mxGeometry>
        </mxCell>
        <mxCell id="XlU7eiJMvj6CBkXYbZNx-34" value="num[3]&#39;&lt;div&gt;num[2]&#39;&lt;/div&gt;&lt;div&gt;num[1]&lt;/div&gt;" style="shape=or;whiteSpace=wrap;html=1;" vertex="1" parent="1">
          <mxGeometry x="1640" y="710" width="60" height="80" as="geometry" />
        </mxCell>
        <mxCell id="XlU7eiJMvj6CBkXYbZNx-239" style="edgeStyle=orthogonalEdgeStyle;rounded=0;orthogonalLoop=1;jettySize=auto;html=1;exitX=0;exitY=0.5;exitDx=0;exitDy=0;exitPerimeter=0;" edge="1" parent="1" source="XlU7eiJMvj6CBkXYbZNx-35">
          <mxGeometry relative="1" as="geometry">
            <mxPoint x="1340" y="860" as="targetPoint" />
          </mxGeometry>
        </mxCell>
        <mxCell id="XlU7eiJMvj6CBkXYbZNx-240" style="edgeStyle=orthogonalEdgeStyle;rounded=0;orthogonalLoop=1;jettySize=auto;html=1;exitX=0;exitY=0.75;exitDx=0;exitDy=0;exitPerimeter=0;" edge="1" parent="1" source="XlU7eiJMvj6CBkXYbZNx-35">
          <mxGeometry relative="1" as="geometry">
            <mxPoint x="1370" y="890" as="targetPoint" />
          </mxGeometry>
        </mxCell>
        <mxCell id="XlU7eiJMvj6CBkXYbZNx-35" value="num[3]&#39;&lt;div&gt;num[1]&lt;/div&gt;&lt;div&gt;num[0]&lt;/div&gt;" style="shape=or;whiteSpace=wrap;html=1;" vertex="1" parent="1">
          <mxGeometry x="1640" y="810" width="60" height="80" as="geometry" />
        </mxCell>
        <mxCell id="XlU7eiJMvj6CBkXYbZNx-241" style="edgeStyle=orthogonalEdgeStyle;rounded=0;orthogonalLoop=1;jettySize=auto;html=1;exitX=0;exitY=0.25;exitDx=0;exitDy=0;exitPerimeter=0;" edge="1" parent="1" source="XlU7eiJMvj6CBkXYbZNx-36">
          <mxGeometry relative="1" as="geometry">
            <mxPoint x="1270" y="920" as="targetPoint" />
          </mxGeometry>
        </mxCell>
        <mxCell id="XlU7eiJMvj6CBkXYbZNx-242" style="edgeStyle=orthogonalEdgeStyle;rounded=0;orthogonalLoop=1;jettySize=auto;html=1;exitX=0;exitY=0.5;exitDx=0;exitDy=0;exitPerimeter=0;" edge="1" parent="1" source="XlU7eiJMvj6CBkXYbZNx-36">
          <mxGeometry relative="1" as="geometry">
            <mxPoint x="1320" y="960" as="targetPoint" />
          </mxGeometry>
        </mxCell>
        <mxCell id="XlU7eiJMvj6CBkXYbZNx-244" style="edgeStyle=orthogonalEdgeStyle;rounded=0;orthogonalLoop=1;jettySize=auto;html=1;exitX=0;exitY=0.75;exitDx=0;exitDy=0;exitPerimeter=0;" edge="1" parent="1" source="XlU7eiJMvj6CBkXYbZNx-36">
          <mxGeometry relative="1" as="geometry">
            <mxPoint x="1370" y="1010" as="targetPoint" />
          </mxGeometry>
        </mxCell>
        <mxCell id="XlU7eiJMvj6CBkXYbZNx-36" value="num[3]&lt;div&gt;num[2]&lt;/div&gt;&lt;div&gt;num[1]&#39;&lt;/div&gt;&lt;div&gt;num[0]&lt;/div&gt;" style="shape=or;whiteSpace=wrap;html=1;" vertex="1" parent="1">
          <mxGeometry x="1640" y="920" width="60" height="80" as="geometry" />
        </mxCell>
        <mxCell id="XlU7eiJMvj6CBkXYbZNx-37" value="num[3]&#39;&lt;div&gt;num[2]&#39;&lt;/div&gt;&lt;div&gt;num[1]&#39;&lt;/div&gt;" style="shape=or;whiteSpace=wrap;html=1;" vertex="1" parent="1">
          <mxGeometry x="1640" y="1040" width="60" height="80" as="geometry" />
        </mxCell>
        <mxCell id="XlU7eiJMvj6CBkXYbZNx-248" style="edgeStyle=orthogonalEdgeStyle;rounded=0;orthogonalLoop=1;jettySize=auto;html=1;exitX=0;exitY=0.25;exitDx=0;exitDy=0;exitPerimeter=0;" edge="1" parent="1" source="XlU7eiJMvj6CBkXYbZNx-38">
          <mxGeometry relative="1" as="geometry">
            <mxPoint x="1280" y="1160" as="targetPoint" />
          </mxGeometry>
        </mxCell>
        <mxCell id="XlU7eiJMvj6CBkXYbZNx-250" style="edgeStyle=orthogonalEdgeStyle;rounded=0;orthogonalLoop=1;jettySize=auto;html=1;exitX=0;exitY=0.5;exitDx=0;exitDy=0;exitPerimeter=0;" edge="1" parent="1" source="XlU7eiJMvj6CBkXYbZNx-38">
          <mxGeometry relative="1" as="geometry">
            <mxPoint x="1320" y="1180" as="targetPoint" />
          </mxGeometry>
        </mxCell>
        <mxCell id="XlU7eiJMvj6CBkXYbZNx-38" value="num[3]&lt;div&gt;num[2]&lt;/div&gt;&lt;div&gt;num[1]&#39;&lt;/div&gt;&lt;div&gt;num[0]&#39;&lt;/div&gt;" style="shape=or;whiteSpace=wrap;html=1;" vertex="1" parent="1">
          <mxGeometry x="1640" y="1140" width="60" height="80" as="geometry" />
        </mxCell>
        <mxCell id="XlU7eiJMvj6CBkXYbZNx-39" value="num[3]&#39;&lt;div&gt;num[2]&lt;/div&gt;&lt;div&gt;num[1]&lt;/div&gt;&lt;div&gt;num[0]&lt;/div&gt;" style="shape=or;whiteSpace=wrap;html=1;" vertex="1" parent="1">
          <mxGeometry x="1640" y="1240" width="60" height="80" as="geometry" />
        </mxCell>
        <mxCell id="XlU7eiJMvj6CBkXYbZNx-43" value="" style="shape=xor;whiteSpace=wrap;html=1;" vertex="1" parent="1">
          <mxGeometry x="680" y="180" width="110" height="130" as="geometry" />
        </mxCell>
        <mxCell id="XlU7eiJMvj6CBkXYbZNx-181" style="edgeStyle=orthogonalEdgeStyle;rounded=0;orthogonalLoop=1;jettySize=auto;html=1;exitX=1;exitY=0.5;exitDx=0;exitDy=0;exitPerimeter=0;entryX=0.5;entryY=1;entryDx=0;entryDy=0;" edge="1" parent="1" source="XlU7eiJMvj6CBkXYbZNx-44" target="XlU7eiJMvj6CBkXYbZNx-52">
          <mxGeometry relative="1" as="geometry">
            <Array as="points">
              <mxPoint x="790" y="645" />
            </Array>
          </mxGeometry>
        </mxCell>
        <mxCell id="XlU7eiJMvj6CBkXYbZNx-44" value="" style="shape=xor;whiteSpace=wrap;html=1;" vertex="1" parent="1">
          <mxGeometry x="680" y="590" width="110" height="130" as="geometry" />
        </mxCell>
        <mxCell id="XlU7eiJMvj6CBkXYbZNx-187" style="edgeStyle=orthogonalEdgeStyle;rounded=0;orthogonalLoop=1;jettySize=auto;html=1;exitX=1;exitY=0.5;exitDx=0;exitDy=0;exitPerimeter=0;entryX=0.5;entryY=1;entryDx=0;entryDy=0;" edge="1" parent="1" source="XlU7eiJMvj6CBkXYbZNx-45" target="XlU7eiJMvj6CBkXYbZNx-56">
          <mxGeometry relative="1" as="geometry">
            <Array as="points">
              <mxPoint x="790" y="975" />
            </Array>
          </mxGeometry>
        </mxCell>
        <mxCell id="XlU7eiJMvj6CBkXYbZNx-45" value="" style="shape=xor;whiteSpace=wrap;html=1;" vertex="1" parent="1">
          <mxGeometry x="680" y="920" width="110" height="130" as="geometry" />
        </mxCell>
        <mxCell id="XlU7eiJMvj6CBkXYbZNx-258" style="edgeStyle=orthogonalEdgeStyle;rounded=0;orthogonalLoop=1;jettySize=auto;html=1;exitX=1;exitY=0.5;exitDx=0;exitDy=0;exitPerimeter=0;entryX=0.5;entryY=1;entryDx=0;entryDy=0;" edge="1" parent="1" source="XlU7eiJMvj6CBkXYbZNx-46" target="XlU7eiJMvj6CBkXYbZNx-57">
          <mxGeometry relative="1" as="geometry">
            <Array as="points">
              <mxPoint x="1950" y="55" />
            </Array>
          </mxGeometry>
        </mxCell>
        <mxCell id="XlU7eiJMvj6CBkXYbZNx-46" value="" style="shape=xor;whiteSpace=wrap;html=1;" vertex="1" parent="1">
          <mxGeometry x="1840" width="110" height="130" as="geometry" />
        </mxCell>
        <mxCell id="XlU7eiJMvj6CBkXYbZNx-262" style="edgeStyle=orthogonalEdgeStyle;rounded=0;orthogonalLoop=1;jettySize=auto;html=1;exitX=1;exitY=0.5;exitDx=0;exitDy=0;exitPerimeter=0;entryX=0.5;entryY=1;entryDx=0;entryDy=0;" edge="1" parent="1" source="XlU7eiJMvj6CBkXYbZNx-47" target="XlU7eiJMvj6CBkXYbZNx-58">
          <mxGeometry relative="1" as="geometry">
            <Array as="points">
              <mxPoint x="1950" y="420" />
              <mxPoint x="2020" y="420" />
              <mxPoint x="2020" y="415" />
            </Array>
          </mxGeometry>
        </mxCell>
        <mxCell id="XlU7eiJMvj6CBkXYbZNx-47" value="" style="shape=xor;whiteSpace=wrap;html=1;" vertex="1" parent="1">
          <mxGeometry x="1840" y="360" width="110" height="130" as="geometry" />
        </mxCell>
        <mxCell id="XlU7eiJMvj6CBkXYbZNx-267" style="edgeStyle=orthogonalEdgeStyle;rounded=0;orthogonalLoop=1;jettySize=auto;html=1;exitX=1;exitY=0.5;exitDx=0;exitDy=0;exitPerimeter=0;entryX=0.5;entryY=1;entryDx=0;entryDy=0;" edge="1" parent="1" source="XlU7eiJMvj6CBkXYbZNx-48" target="XlU7eiJMvj6CBkXYbZNx-59">
          <mxGeometry relative="1" as="geometry">
            <Array as="points">
              <mxPoint x="1950" y="765" />
            </Array>
          </mxGeometry>
        </mxCell>
        <mxCell id="XlU7eiJMvj6CBkXYbZNx-48" value="" style="shape=xor;whiteSpace=wrap;html=1;" vertex="1" parent="1">
          <mxGeometry x="1840" y="710" width="110" height="130" as="geometry" />
        </mxCell>
        <mxCell id="XlU7eiJMvj6CBkXYbZNx-271" style="edgeStyle=orthogonalEdgeStyle;rounded=0;orthogonalLoop=1;jettySize=auto;html=1;exitX=1;exitY=0.5;exitDx=0;exitDy=0;exitPerimeter=0;entryX=0.5;entryY=1;entryDx=0;entryDy=0;" edge="1" parent="1" source="XlU7eiJMvj6CBkXYbZNx-49" target="XlU7eiJMvj6CBkXYbZNx-60">
          <mxGeometry relative="1" as="geometry">
            <Array as="points">
              <mxPoint x="1950" y="1120" />
              <mxPoint x="2020" y="1120" />
              <mxPoint x="2020" y="1115" />
            </Array>
          </mxGeometry>
        </mxCell>
        <mxCell id="XlU7eiJMvj6CBkXYbZNx-49" value="" style="shape=xor;whiteSpace=wrap;html=1;" vertex="1" parent="1">
          <mxGeometry x="1840" y="1070" width="110" height="130" as="geometry" />
        </mxCell>
        <mxCell id="XlU7eiJMvj6CBkXYbZNx-52" value="" style="shape=offPageConnector;whiteSpace=wrap;html=1;direction=south;" vertex="1" parent="1">
          <mxGeometry x="910" y="620" width="80" height="50" as="geometry" />
        </mxCell>
        <mxCell id="XlU7eiJMvj6CBkXYbZNx-55" value="" style="shape=offPageConnector;whiteSpace=wrap;html=1;direction=south;" vertex="1" parent="1">
          <mxGeometry x="910" y="220" width="80" height="50" as="geometry" />
        </mxCell>
        <mxCell id="XlU7eiJMvj6CBkXYbZNx-56" value="" style="shape=offPageConnector;whiteSpace=wrap;html=1;direction=south;" vertex="1" parent="1">
          <mxGeometry x="910" y="950" width="80" height="50" as="geometry" />
        </mxCell>
        <mxCell id="XlU7eiJMvj6CBkXYbZNx-57" value="" style="shape=offPageConnector;whiteSpace=wrap;html=1;direction=south;" vertex="1" parent="1">
          <mxGeometry x="2090" y="30" width="80" height="50" as="geometry" />
        </mxCell>
        <mxCell id="XlU7eiJMvj6CBkXYbZNx-58" value="" style="shape=offPageConnector;whiteSpace=wrap;html=1;direction=south;" vertex="1" parent="1">
          <mxGeometry x="2090" y="390" width="80" height="50" as="geometry" />
        </mxCell>
        <mxCell id="XlU7eiJMvj6CBkXYbZNx-59" value="" style="shape=offPageConnector;whiteSpace=wrap;html=1;direction=south;" vertex="1" parent="1">
          <mxGeometry x="2090" y="740" width="80" height="50" as="geometry" />
        </mxCell>
        <mxCell id="XlU7eiJMvj6CBkXYbZNx-60" value="" style="shape=offPageConnector;whiteSpace=wrap;html=1;direction=south;" vertex="1" parent="1">
          <mxGeometry x="2090" y="1090" width="80" height="50" as="geometry" />
        </mxCell>
        <mxCell id="XlU7eiJMvj6CBkXYbZNx-62" value="A" style="text;strokeColor=none;fillColor=none;html=1;fontSize=24;fontStyle=1;verticalAlign=middle;align=center;" vertex="1" parent="1">
          <mxGeometry x="910" y="160" width="100" height="60" as="geometry" />
        </mxCell>
        <mxCell id="XlU7eiJMvj6CBkXYbZNx-64" value="B" style="text;strokeColor=none;fillColor=none;html=1;fontSize=24;fontStyle=1;verticalAlign=middle;align=center;" vertex="1" parent="1">
          <mxGeometry x="910" y="560" width="100" height="60" as="geometry" />
        </mxCell>
        <mxCell id="XlU7eiJMvj6CBkXYbZNx-65" value="C&lt;span style=&quot;color: rgba(0, 0, 0, 0); font-family: monospace; font-size: 0px; font-weight: 400; text-align: start;&quot;&gt;%3CmxGraphModel%3E%3Croot%3E%3CmxCell%20id%3D%220%22%2F%3E%3CmxCell%20id%3D%221%22%20parent%3D%220%22%2F%3E%3CmxCell%20id%3D%222%22%20value%3D%22A%22%20style%3D%22text%3BstrokeColor%3Dnone%3BfillColor%3Dnone%3Bhtml%3D1%3BfontSize%3D24%3BfontStyle%3D1%3BverticalAlign%3Dmiddle%3Balign%3Dcenter%3B%22%20vertex%3D%221%22%20parent%3D%221%22%3E%3CmxGeometry%20x%3D%22910%22%20y%3D%22160%22%20width%3D%22100%22%20height%3D%2260%22%20as%3D%22geometry%22%2F%3E%3C%2FmxCell%3E%3C%2Froot%3E%3C%2FmxGraphModel%3E&lt;/span&gt;" style="text;strokeColor=none;fillColor=none;html=1;fontSize=24;fontStyle=1;verticalAlign=middle;align=center;" vertex="1" parent="1">
          <mxGeometry x="910" y="880" width="100" height="60" as="geometry" />
        </mxCell>
        <mxCell id="XlU7eiJMvj6CBkXYbZNx-66" value="D" style="text;strokeColor=none;fillColor=none;html=1;fontSize=24;fontStyle=1;verticalAlign=middle;align=center;" vertex="1" parent="1">
          <mxGeometry x="2090" y="-40" width="100" height="60" as="geometry" />
        </mxCell>
        <mxCell id="XlU7eiJMvj6CBkXYbZNx-67" value="E" style="text;strokeColor=none;fillColor=none;html=1;fontSize=24;fontStyle=1;verticalAlign=middle;align=center;" vertex="1" parent="1">
          <mxGeometry x="2090" y="320" width="100" height="60" as="geometry" />
        </mxCell>
        <mxCell id="XlU7eiJMvj6CBkXYbZNx-68" value="F" style="text;strokeColor=none;fillColor=none;html=1;fontSize=24;fontStyle=1;verticalAlign=middle;align=center;" vertex="1" parent="1">
          <mxGeometry x="2090" y="670" width="100" height="60" as="geometry" />
        </mxCell>
        <mxCell id="XlU7eiJMvj6CBkXYbZNx-69" value="G" style="text;strokeColor=none;fillColor=none;html=1;fontSize=24;fontStyle=1;verticalAlign=middle;align=center;" vertex="1" parent="1">
          <mxGeometry x="2090" y="1020" width="100" height="60" as="geometry" />
        </mxCell>
        <mxCell id="XlU7eiJMvj6CBkXYbZNx-118" style="edgeStyle=orthogonalEdgeStyle;rounded=0;orthogonalLoop=1;jettySize=auto;html=1;exitX=1;exitY=0;exitDx=0;exitDy=0;" edge="1" parent="1" source="XlU7eiJMvj6CBkXYbZNx-71">
          <mxGeometry relative="1" as="geometry">
            <mxPoint x="200" y="400" as="targetPoint" />
          </mxGeometry>
        </mxCell>
        <mxCell id="XlU7eiJMvj6CBkXYbZNx-71" value="" style="ellipse;whiteSpace=wrap;html=1;aspect=fixed;" vertex="1" parent="1">
          <mxGeometry x="440" y="60" width="20" height="20" as="geometry" />
        </mxCell>
        <mxCell id="XlU7eiJMvj6CBkXYbZNx-74" value="" style="ellipse;whiteSpace=wrap;html=1;aspect=fixed;" vertex="1" parent="1">
          <mxGeometry x="440" y="80" width="20" height="20" as="geometry" />
        </mxCell>
        <mxCell id="XlU7eiJMvj6CBkXYbZNx-75" value="" style="ellipse;whiteSpace=wrap;html=1;aspect=fixed;" vertex="1" parent="1">
          <mxGeometry x="440" y="100" width="20" height="20" as="geometry" />
        </mxCell>
        <mxCell id="XlU7eiJMvj6CBkXYbZNx-136" style="edgeStyle=orthogonalEdgeStyle;rounded=0;orthogonalLoop=1;jettySize=auto;html=1;exitX=0;exitY=0.5;exitDx=0;exitDy=0;" edge="1" parent="1" source="XlU7eiJMvj6CBkXYbZNx-76">
          <mxGeometry relative="1" as="geometry">
            <mxPoint x="200" y="210" as="targetPoint" />
          </mxGeometry>
        </mxCell>
        <mxCell id="XlU7eiJMvj6CBkXYbZNx-76" value="" style="ellipse;whiteSpace=wrap;html=1;aspect=fixed;" vertex="1" parent="1">
          <mxGeometry x="440" y="160" width="20" height="20" as="geometry" />
        </mxCell>
        <mxCell id="XlU7eiJMvj6CBkXYbZNx-139" style="edgeStyle=orthogonalEdgeStyle;rounded=0;orthogonalLoop=1;jettySize=auto;html=1;exitX=0;exitY=0.5;exitDx=0;exitDy=0;" edge="1" parent="1" source="XlU7eiJMvj6CBkXYbZNx-77">
          <mxGeometry relative="1" as="geometry">
            <mxPoint x="280" y="290" as="targetPoint" />
            <Array as="points">
              <mxPoint x="380" y="210" />
              <mxPoint x="380" y="280" />
              <mxPoint x="280" y="280" />
            </Array>
          </mxGeometry>
        </mxCell>
        <mxCell id="XlU7eiJMvj6CBkXYbZNx-77" value="" style="ellipse;whiteSpace=wrap;html=1;aspect=fixed;" vertex="1" parent="1">
          <mxGeometry x="440" y="200" width="20" height="20" as="geometry" />
        </mxCell>
        <mxCell id="XlU7eiJMvj6CBkXYbZNx-140" style="edgeStyle=orthogonalEdgeStyle;rounded=0;orthogonalLoop=1;jettySize=auto;html=1;exitX=0;exitY=0.5;exitDx=0;exitDy=0;" edge="1" parent="1" source="XlU7eiJMvj6CBkXYbZNx-78">
          <mxGeometry relative="1" as="geometry">
            <mxPoint x="310" y="230" as="targetPoint" />
          </mxGeometry>
        </mxCell>
        <mxCell id="XlU7eiJMvj6CBkXYbZNx-78" value="" style="ellipse;whiteSpace=wrap;html=1;aspect=fixed;" vertex="1" parent="1">
          <mxGeometry x="440" y="220" width="20" height="20" as="geometry" />
        </mxCell>
        <mxCell id="XlU7eiJMvj6CBkXYbZNx-147" style="edgeStyle=orthogonalEdgeStyle;rounded=0;orthogonalLoop=1;jettySize=auto;html=1;exitX=0;exitY=0;exitDx=0;exitDy=0;" edge="1" parent="1" source="XlU7eiJMvj6CBkXYbZNx-79">
          <mxGeometry relative="1" as="geometry">
            <mxPoint x="280" y="400" as="targetPoint" />
            <Array as="points">
              <mxPoint x="360" y="303" />
              <mxPoint x="360" y="400" />
            </Array>
          </mxGeometry>
        </mxCell>
        <mxCell id="XlU7eiJMvj6CBkXYbZNx-79" value="" style="ellipse;whiteSpace=wrap;html=1;aspect=fixed;" vertex="1" parent="1">
          <mxGeometry x="440" y="300" width="20" height="20" as="geometry" />
        </mxCell>
        <mxCell id="XlU7eiJMvj6CBkXYbZNx-154" style="edgeStyle=orthogonalEdgeStyle;rounded=0;orthogonalLoop=1;jettySize=auto;html=1;exitX=0;exitY=1;exitDx=0;exitDy=0;" edge="1" parent="1" source="XlU7eiJMvj6CBkXYbZNx-80">
          <mxGeometry relative="1" as="geometry">
            <mxPoint x="250" y="470" as="targetPoint" />
          </mxGeometry>
        </mxCell>
        <mxCell id="XlU7eiJMvj6CBkXYbZNx-80" value="" style="ellipse;whiteSpace=wrap;html=1;aspect=fixed;" vertex="1" parent="1">
          <mxGeometry x="440" y="380" width="20" height="20" as="geometry" />
        </mxCell>
        <mxCell id="XlU7eiJMvj6CBkXYbZNx-158" style="edgeStyle=orthogonalEdgeStyle;rounded=0;orthogonalLoop=1;jettySize=auto;html=1;exitX=0.5;exitY=1;exitDx=0;exitDy=0;" edge="1" parent="1" source="XlU7eiJMvj6CBkXYbZNx-81">
          <mxGeometry relative="1" as="geometry">
            <mxPoint x="310" y="610" as="targetPoint" />
          </mxGeometry>
        </mxCell>
        <mxCell id="XlU7eiJMvj6CBkXYbZNx-81" value="" style="ellipse;whiteSpace=wrap;html=1;aspect=fixed;" vertex="1" parent="1">
          <mxGeometry x="440" y="520" width="20" height="20" as="geometry" />
        </mxCell>
        <mxCell id="XlU7eiJMvj6CBkXYbZNx-165" style="edgeStyle=orthogonalEdgeStyle;rounded=0;orthogonalLoop=1;jettySize=auto;html=1;exitX=0;exitY=1;exitDx=0;exitDy=0;" edge="1" parent="1" source="XlU7eiJMvj6CBkXYbZNx-82">
          <mxGeometry relative="1" as="geometry">
            <mxPoint x="310" y="746.3333333333335" as="targetPoint" />
          </mxGeometry>
        </mxCell>
        <mxCell id="XlU7eiJMvj6CBkXYbZNx-82" value="" style="ellipse;whiteSpace=wrap;html=1;aspect=fixed;" vertex="1" parent="1">
          <mxGeometry x="440" y="730" width="20" height="20" as="geometry" />
        </mxCell>
        <mxCell id="XlU7eiJMvj6CBkXYbZNx-83" value="" style="ellipse;whiteSpace=wrap;html=1;aspect=fixed;" vertex="1" parent="1">
          <mxGeometry x="440" y="780" width="20" height="20" as="geometry" />
        </mxCell>
        <mxCell id="XlU7eiJMvj6CBkXYbZNx-171" style="edgeStyle=orthogonalEdgeStyle;rounded=0;orthogonalLoop=1;jettySize=auto;html=1;exitX=0;exitY=0;exitDx=0;exitDy=0;" edge="1" parent="1" source="XlU7eiJMvj6CBkXYbZNx-84">
          <mxGeometry relative="1" as="geometry">
            <mxPoint x="200" y="883" as="targetPoint" />
          </mxGeometry>
        </mxCell>
        <mxCell id="XlU7eiJMvj6CBkXYbZNx-84" value="" style="ellipse;whiteSpace=wrap;html=1;aspect=fixed;" vertex="1" parent="1">
          <mxGeometry x="440" y="880" width="20" height="20" as="geometry" />
        </mxCell>
        <mxCell id="XlU7eiJMvj6CBkXYbZNx-169" style="edgeStyle=orthogonalEdgeStyle;rounded=0;orthogonalLoop=1;jettySize=auto;html=1;exitX=0;exitY=0;exitDx=0;exitDy=0;" edge="1" parent="1" source="XlU7eiJMvj6CBkXYbZNx-85">
          <mxGeometry relative="1" as="geometry">
            <mxPoint x="280" y="850" as="targetPoint" />
          </mxGeometry>
        </mxCell>
        <mxCell id="XlU7eiJMvj6CBkXYbZNx-85" value="" style="ellipse;whiteSpace=wrap;html=1;aspect=fixed;" vertex="1" parent="1">
          <mxGeometry x="440" y="820" width="20" height="20" as="geometry" />
        </mxCell>
        <mxCell id="XlU7eiJMvj6CBkXYbZNx-172" style="edgeStyle=orthogonalEdgeStyle;rounded=0;orthogonalLoop=1;jettySize=auto;html=1;exitX=1;exitY=1;exitDx=0;exitDy=0;" edge="1" parent="1" source="XlU7eiJMvj6CBkXYbZNx-86">
          <mxGeometry relative="1" as="geometry">
            <mxPoint x="250" y="916.3333333333335" as="targetPoint" />
          </mxGeometry>
        </mxCell>
        <mxCell id="XlU7eiJMvj6CBkXYbZNx-86" value="" style="ellipse;whiteSpace=wrap;html=1;aspect=fixed;" vertex="1" parent="1">
          <mxGeometry x="440" y="900" width="20" height="20" as="geometry" />
        </mxCell>
        <mxCell id="XlU7eiJMvj6CBkXYbZNx-87" value="" style="ellipse;whiteSpace=wrap;html=1;aspect=fixed;" vertex="1" parent="1">
          <mxGeometry x="440" y="1130" width="20" height="20" as="geometry" />
        </mxCell>
        <mxCell id="XlU7eiJMvj6CBkXYbZNx-174" style="edgeStyle=orthogonalEdgeStyle;rounded=0;orthogonalLoop=1;jettySize=auto;html=1;exitX=1;exitY=1;exitDx=0;exitDy=0;" edge="1" parent="1" source="XlU7eiJMvj6CBkXYbZNx-88">
          <mxGeometry relative="1" as="geometry">
            <mxPoint x="310" y="956.3333333333335" as="targetPoint" />
          </mxGeometry>
        </mxCell>
        <mxCell id="XlU7eiJMvj6CBkXYbZNx-88" value="" style="ellipse;whiteSpace=wrap;html=1;aspect=fixed;" vertex="1" parent="1">
          <mxGeometry x="440" y="940" width="20" height="20" as="geometry" />
        </mxCell>
        <mxCell id="XlU7eiJMvj6CBkXYbZNx-194" style="edgeStyle=orthogonalEdgeStyle;rounded=0;orthogonalLoop=1;jettySize=auto;html=1;exitX=0.5;exitY=1;exitDx=0;exitDy=0;entryX=0;entryY=1;entryDx=0;entryDy=0;" edge="1" parent="1" source="XlU7eiJMvj6CBkXYbZNx-89" target="XlU7eiJMvj6CBkXYbZNx-113">
          <mxGeometry relative="1" as="geometry">
            <Array as="points">
              <mxPoint x="1280" y="-80" />
              <mxPoint x="1280" y="1267" />
            </Array>
          </mxGeometry>
        </mxCell>
        <mxCell id="XlU7eiJMvj6CBkXYbZNx-89" value="" style="ellipse;whiteSpace=wrap;html=1;aspect=fixed;" vertex="1" parent="1">
          <mxGeometry x="1620" y="-100" width="20" height="20" as="geometry" />
        </mxCell>
        <mxCell id="XlU7eiJMvj6CBkXYbZNx-90" value="" style="ellipse;whiteSpace=wrap;html=1;aspect=fixed;" vertex="1" parent="1">
          <mxGeometry x="1620" y="-80" width="20" height="20" as="geometry" />
        </mxCell>
        <mxCell id="XlU7eiJMvj6CBkXYbZNx-91" value="" style="ellipse;whiteSpace=wrap;html=1;aspect=fixed;" vertex="1" parent="1">
          <mxGeometry x="1620" y="-60" width="20" height="20" as="geometry" />
        </mxCell>
        <mxCell id="XlU7eiJMvj6CBkXYbZNx-212" style="edgeStyle=orthogonalEdgeStyle;rounded=0;orthogonalLoop=1;jettySize=auto;html=1;exitX=1;exitY=1;exitDx=0;exitDy=0;" edge="1" parent="1" source="XlU7eiJMvj6CBkXYbZNx-92">
          <mxGeometry relative="1" as="geometry">
            <mxPoint x="1280" y="17" as="targetPoint" />
          </mxGeometry>
        </mxCell>
        <mxCell id="XlU7eiJMvj6CBkXYbZNx-92" value="" style="ellipse;whiteSpace=wrap;html=1;aspect=fixed;" vertex="1" parent="1">
          <mxGeometry x="1620" width="20" height="20" as="geometry" />
        </mxCell>
        <mxCell id="XlU7eiJMvj6CBkXYbZNx-213" style="edgeStyle=orthogonalEdgeStyle;rounded=0;orthogonalLoop=1;jettySize=auto;html=1;exitX=0;exitY=0.5;exitDx=0;exitDy=0;" edge="1" parent="1" source="XlU7eiJMvj6CBkXYbZNx-93">
          <mxGeometry relative="1" as="geometry">
            <mxPoint x="1340" y="50" as="targetPoint" />
          </mxGeometry>
        </mxCell>
        <mxCell id="XlU7eiJMvj6CBkXYbZNx-93" value="" style="ellipse;whiteSpace=wrap;html=1;aspect=fixed;" vertex="1" parent="1">
          <mxGeometry x="1620" y="40" width="20" height="20" as="geometry" />
        </mxCell>
        <mxCell id="XlU7eiJMvj6CBkXYbZNx-215" style="edgeStyle=orthogonalEdgeStyle;rounded=0;orthogonalLoop=1;jettySize=auto;html=1;exitX=0;exitY=0.5;exitDx=0;exitDy=0;" edge="1" parent="1" source="XlU7eiJMvj6CBkXYbZNx-94">
          <mxGeometry relative="1" as="geometry">
            <mxPoint x="1370" y="80" as="targetPoint" />
            <Array as="points">
              <mxPoint x="1496" y="70" />
              <mxPoint x="1496" y="81" />
            </Array>
          </mxGeometry>
        </mxCell>
        <mxCell id="XlU7eiJMvj6CBkXYbZNx-94" value="" style="ellipse;whiteSpace=wrap;html=1;aspect=fixed;" vertex="1" parent="1">
          <mxGeometry x="1620" y="60" width="20" height="20" as="geometry" />
        </mxCell>
        <mxCell id="XlU7eiJMvj6CBkXYbZNx-217" style="edgeStyle=orthogonalEdgeStyle;rounded=0;orthogonalLoop=1;jettySize=auto;html=1;exitX=0;exitY=1;exitDx=0;exitDy=0;" edge="1" parent="1" source="XlU7eiJMvj6CBkXYbZNx-95">
          <mxGeometry relative="1" as="geometry">
            <mxPoint x="1320" y="140" as="targetPoint" />
          </mxGeometry>
        </mxCell>
        <mxCell id="XlU7eiJMvj6CBkXYbZNx-95" value="" style="ellipse;whiteSpace=wrap;html=1;aspect=fixed;" vertex="1" parent="1">
          <mxGeometry x="1620" y="120" width="20" height="20" as="geometry" />
        </mxCell>
        <mxCell id="XlU7eiJMvj6CBkXYbZNx-220" style="edgeStyle=orthogonalEdgeStyle;rounded=0;orthogonalLoop=1;jettySize=auto;html=1;exitX=0;exitY=0.5;exitDx=0;exitDy=0;" edge="1" parent="1" source="XlU7eiJMvj6CBkXYbZNx-96">
          <mxGeometry relative="1" as="geometry">
            <mxPoint x="1370" y="230" as="targetPoint" />
            <Array as="points">
              <mxPoint x="1620" y="200" />
              <mxPoint x="1371" y="200" />
            </Array>
          </mxGeometry>
        </mxCell>
        <mxCell id="XlU7eiJMvj6CBkXYbZNx-96" value="" style="ellipse;whiteSpace=wrap;html=1;aspect=fixed;" vertex="1" parent="1">
          <mxGeometry x="1620" y="160" width="20" height="20" as="geometry" />
        </mxCell>
        <mxCell id="XlU7eiJMvj6CBkXYbZNx-224" style="edgeStyle=orthogonalEdgeStyle;rounded=0;orthogonalLoop=1;jettySize=auto;html=1;exitX=1;exitY=0;exitDx=0;exitDy=0;" edge="1" parent="1" source="XlU7eiJMvj6CBkXYbZNx-97">
          <mxGeometry relative="1" as="geometry">
            <mxPoint x="1280" y="333" as="targetPoint" />
          </mxGeometry>
        </mxCell>
        <mxCell id="XlU7eiJMvj6CBkXYbZNx-97" value="" style="ellipse;whiteSpace=wrap;html=1;aspect=fixed;" vertex="1" parent="1">
          <mxGeometry x="1620" y="330" width="20" height="20" as="geometry" />
        </mxCell>
        <mxCell id="XlU7eiJMvj6CBkXYbZNx-226" style="edgeStyle=orthogonalEdgeStyle;rounded=0;orthogonalLoop=1;jettySize=auto;html=1;exitX=0;exitY=1;exitDx=0;exitDy=0;" edge="1" parent="1" source="XlU7eiJMvj6CBkXYbZNx-98">
          <mxGeometry relative="1" as="geometry">
            <mxPoint x="1320" y="430" as="targetPoint" />
          </mxGeometry>
        </mxCell>
        <mxCell id="XlU7eiJMvj6CBkXYbZNx-98" value="" style="ellipse;whiteSpace=wrap;html=1;aspect=fixed;" vertex="1" parent="1">
          <mxGeometry x="1620" y="420" width="20" height="20" as="geometry" />
        </mxCell>
        <mxCell id="XlU7eiJMvj6CBkXYbZNx-227" style="edgeStyle=orthogonalEdgeStyle;rounded=0;orthogonalLoop=1;jettySize=auto;html=1;exitX=0;exitY=1;exitDx=0;exitDy=0;" edge="1" parent="1" source="XlU7eiJMvj6CBkXYbZNx-99">
          <mxGeometry relative="1" as="geometry">
            <mxPoint x="1330" y="460" as="targetPoint" />
          </mxGeometry>
        </mxCell>
        <mxCell id="XlU7eiJMvj6CBkXYbZNx-99" value="" style="ellipse;whiteSpace=wrap;html=1;aspect=fixed;" vertex="1" parent="1">
          <mxGeometry x="1620" y="440" width="20" height="20" as="geometry" />
        </mxCell>
        <mxCell id="XlU7eiJMvj6CBkXYbZNx-229" style="edgeStyle=orthogonalEdgeStyle;rounded=0;orthogonalLoop=1;jettySize=auto;html=1;exitX=1;exitY=0.5;exitDx=0;exitDy=0;" edge="1" parent="1" source="XlU7eiJMvj6CBkXYbZNx-100">
          <mxGeometry relative="1" as="geometry">
            <mxPoint x="1280" y="540" as="targetPoint" />
            <Array as="points">
              <mxPoint x="1281" y="520" />
            </Array>
          </mxGeometry>
        </mxCell>
        <mxCell id="XlU7eiJMvj6CBkXYbZNx-100" value="" style="ellipse;whiteSpace=wrap;html=1;aspect=fixed;" vertex="1" parent="1">
          <mxGeometry x="1620" y="510" width="20" height="20" as="geometry" />
        </mxCell>
        <mxCell id="XlU7eiJMvj6CBkXYbZNx-231" style="edgeStyle=orthogonalEdgeStyle;rounded=0;orthogonalLoop=1;jettySize=auto;html=1;exitX=0;exitY=1;exitDx=0;exitDy=0;" edge="1" parent="1" source="XlU7eiJMvj6CBkXYbZNx-101">
          <mxGeometry relative="1" as="geometry">
            <mxPoint x="1340" y="590" as="targetPoint" />
          </mxGeometry>
        </mxCell>
        <mxCell id="XlU7eiJMvj6CBkXYbZNx-101" value="" style="ellipse;whiteSpace=wrap;html=1;aspect=fixed;" vertex="1" parent="1">
          <mxGeometry x="1620" y="550" width="20" height="20" as="geometry" />
        </mxCell>
        <mxCell id="XlU7eiJMvj6CBkXYbZNx-232" style="edgeStyle=orthogonalEdgeStyle;rounded=0;orthogonalLoop=1;jettySize=auto;html=1;exitX=1;exitY=0;exitDx=0;exitDy=0;" edge="1" parent="1" source="XlU7eiJMvj6CBkXYbZNx-102">
          <mxGeometry relative="1" as="geometry">
            <mxPoint x="1280" y="620" as="targetPoint" />
          </mxGeometry>
        </mxCell>
        <mxCell id="XlU7eiJMvj6CBkXYbZNx-102" value="" style="ellipse;whiteSpace=wrap;html=1;aspect=fixed;" vertex="1" parent="1">
          <mxGeometry x="1620" y="610" width="20" height="20" as="geometry" />
        </mxCell>
        <mxCell id="XlU7eiJMvj6CBkXYbZNx-233" style="edgeStyle=orthogonalEdgeStyle;rounded=0;orthogonalLoop=1;jettySize=auto;html=1;exitX=1;exitY=1;exitDx=0;exitDy=0;" edge="1" parent="1" source="XlU7eiJMvj6CBkXYbZNx-103">
          <mxGeometry relative="1" as="geometry">
            <mxPoint x="1320" y="660" as="targetPoint" />
          </mxGeometry>
        </mxCell>
        <mxCell id="XlU7eiJMvj6CBkXYbZNx-103" value="" style="ellipse;whiteSpace=wrap;html=1;aspect=fixed;" vertex="1" parent="1">
          <mxGeometry x="1620" y="630" width="20" height="20" as="geometry" />
        </mxCell>
        <mxCell id="XlU7eiJMvj6CBkXYbZNx-235" style="edgeStyle=orthogonalEdgeStyle;rounded=0;orthogonalLoop=1;jettySize=auto;html=1;exitX=1;exitY=1;exitDx=0;exitDy=0;" edge="1" parent="1" source="XlU7eiJMvj6CBkXYbZNx-104">
          <mxGeometry relative="1" as="geometry">
            <mxPoint x="1280" y="737" as="targetPoint" />
          </mxGeometry>
        </mxCell>
        <mxCell id="XlU7eiJMvj6CBkXYbZNx-104" value="" style="ellipse;whiteSpace=wrap;html=1;aspect=fixed;" vertex="1" parent="1">
          <mxGeometry x="1620" y="720" width="20" height="20" as="geometry" />
        </mxCell>
        <mxCell id="XlU7eiJMvj6CBkXYbZNx-236" style="edgeStyle=orthogonalEdgeStyle;rounded=0;orthogonalLoop=1;jettySize=auto;html=1;exitX=0;exitY=1;exitDx=0;exitDy=0;" edge="1" parent="1" source="XlU7eiJMvj6CBkXYbZNx-105">
          <mxGeometry relative="1" as="geometry">
            <mxPoint x="1320" y="770" as="targetPoint" />
          </mxGeometry>
        </mxCell>
        <mxCell id="XlU7eiJMvj6CBkXYbZNx-105" value="" style="ellipse;whiteSpace=wrap;html=1;aspect=fixed;" vertex="1" parent="1">
          <mxGeometry x="1620" y="740" width="20" height="20" as="geometry" />
        </mxCell>
        <mxCell id="XlU7eiJMvj6CBkXYbZNx-238" style="edgeStyle=orthogonalEdgeStyle;rounded=0;orthogonalLoop=1;jettySize=auto;html=1;exitX=0;exitY=1;exitDx=0;exitDy=0;" edge="1" parent="1" source="XlU7eiJMvj6CBkXYbZNx-106">
          <mxGeometry relative="1" as="geometry">
            <mxPoint x="1280" y="830" as="targetPoint" />
          </mxGeometry>
        </mxCell>
        <mxCell id="XlU7eiJMvj6CBkXYbZNx-106" value="" style="ellipse;whiteSpace=wrap;html=1;aspect=fixed;" vertex="1" parent="1">
          <mxGeometry x="1620" y="820" width="20" height="20" as="geometry" />
        </mxCell>
        <mxCell id="XlU7eiJMvj6CBkXYbZNx-243" style="edgeStyle=orthogonalEdgeStyle;rounded=0;orthogonalLoop=1;jettySize=auto;html=1;exitX=1;exitY=1;exitDx=0;exitDy=0;" edge="1" parent="1" source="XlU7eiJMvj6CBkXYbZNx-107">
          <mxGeometry relative="1" as="geometry">
            <mxPoint x="1340" y="990" as="targetPoint" />
          </mxGeometry>
        </mxCell>
        <mxCell id="XlU7eiJMvj6CBkXYbZNx-107" value="" style="ellipse;whiteSpace=wrap;html=1;aspect=fixed;" vertex="1" parent="1">
          <mxGeometry x="1620" y="960" width="20" height="20" as="geometry" />
        </mxCell>
        <mxCell id="XlU7eiJMvj6CBkXYbZNx-245" style="edgeStyle=orthogonalEdgeStyle;rounded=0;orthogonalLoop=1;jettySize=auto;html=1;exitX=1;exitY=0;exitDx=0;exitDy=0;" edge="1" parent="1" source="XlU7eiJMvj6CBkXYbZNx-108">
          <mxGeometry relative="1" as="geometry">
            <mxPoint x="1280" y="1053" as="targetPoint" />
          </mxGeometry>
        </mxCell>
        <mxCell id="XlU7eiJMvj6CBkXYbZNx-108" value="" style="ellipse;whiteSpace=wrap;html=1;aspect=fixed;" vertex="1" parent="1">
          <mxGeometry x="1620" y="1050" width="20" height="20" as="geometry" />
        </mxCell>
        <mxCell id="XlU7eiJMvj6CBkXYbZNx-246" style="edgeStyle=orthogonalEdgeStyle;rounded=0;orthogonalLoop=1;jettySize=auto;html=1;exitX=0;exitY=0.5;exitDx=0;exitDy=0;" edge="1" parent="1" source="XlU7eiJMvj6CBkXYbZNx-109">
          <mxGeometry relative="1" as="geometry">
            <mxPoint x="1320" y="1080" as="targetPoint" />
          </mxGeometry>
        </mxCell>
        <mxCell id="XlU7eiJMvj6CBkXYbZNx-109" value="" style="ellipse;whiteSpace=wrap;html=1;aspect=fixed;" vertex="1" parent="1">
          <mxGeometry x="1620" y="1070" width="20" height="20" as="geometry" />
        </mxCell>
        <mxCell id="XlU7eiJMvj6CBkXYbZNx-247" style="edgeStyle=orthogonalEdgeStyle;rounded=0;orthogonalLoop=1;jettySize=auto;html=1;exitX=1;exitY=1;exitDx=0;exitDy=0;" edge="1" parent="1" source="XlU7eiJMvj6CBkXYbZNx-110">
          <mxGeometry relative="1" as="geometry">
            <mxPoint x="1340" y="1107" as="targetPoint" />
          </mxGeometry>
        </mxCell>
        <mxCell id="XlU7eiJMvj6CBkXYbZNx-110" value="" style="ellipse;whiteSpace=wrap;html=1;aspect=fixed;" vertex="1" parent="1">
          <mxGeometry x="1620" y="1090" width="20" height="20" as="geometry" />
        </mxCell>
        <mxCell id="XlU7eiJMvj6CBkXYbZNx-251" style="edgeStyle=orthogonalEdgeStyle;rounded=0;orthogonalLoop=1;jettySize=auto;html=1;exitX=1;exitY=1;exitDx=0;exitDy=0;" edge="1" parent="1" source="XlU7eiJMvj6CBkXYbZNx-111">
          <mxGeometry relative="1" as="geometry">
            <mxPoint x="1340" y="1220" as="targetPoint" />
          </mxGeometry>
        </mxCell>
        <mxCell id="XlU7eiJMvj6CBkXYbZNx-111" value="" style="ellipse;whiteSpace=wrap;html=1;aspect=fixed;" vertex="1" parent="1">
          <mxGeometry x="1620" y="1180" width="20" height="20" as="geometry" />
        </mxCell>
        <mxCell id="XlU7eiJMvj6CBkXYbZNx-252" style="edgeStyle=orthogonalEdgeStyle;rounded=0;orthogonalLoop=1;jettySize=auto;html=1;exitX=1;exitY=1;exitDx=0;exitDy=0;" edge="1" parent="1" source="XlU7eiJMvj6CBkXYbZNx-112">
          <mxGeometry relative="1" as="geometry">
            <mxPoint x="1370" y="1230" as="targetPoint" />
          </mxGeometry>
        </mxCell>
        <mxCell id="XlU7eiJMvj6CBkXYbZNx-112" value="" style="ellipse;whiteSpace=wrap;html=1;aspect=fixed;" vertex="1" parent="1">
          <mxGeometry x="1620" y="1200" width="20" height="20" as="geometry" />
        </mxCell>
        <mxCell id="XlU7eiJMvj6CBkXYbZNx-113" value="" style="ellipse;whiteSpace=wrap;html=1;aspect=fixed;" vertex="1" parent="1">
          <mxGeometry x="1620" y="1250" width="20" height="20" as="geometry" />
        </mxCell>
        <mxCell id="XlU7eiJMvj6CBkXYbZNx-117" value="" style="endArrow=none;html=1;rounded=0;" edge="1" parent="1">
          <mxGeometry width="50" height="50" relative="1" as="geometry">
            <mxPoint x="70" y="390" as="sourcePoint" />
            <mxPoint x="200" y="390" as="targetPoint" />
          </mxGeometry>
        </mxCell>
        <mxCell id="XlU7eiJMvj6CBkXYbZNx-120" style="edgeStyle=orthogonalEdgeStyle;rounded=0;orthogonalLoop=1;jettySize=auto;html=1;exitX=0;exitY=0.5;exitDx=0;exitDy=0;entryX=0;entryY=0.5;entryDx=0;entryDy=0;entryPerimeter=0;" edge="1" parent="1" source="XlU7eiJMvj6CBkXYbZNx-74" target="XlU7eiJMvj6CBkXYbZNx-25">
          <mxGeometry relative="1" as="geometry">
            <Array as="points">
              <mxPoint x="250" y="90" />
              <mxPoint x="250" y="1120" />
            </Array>
          </mxGeometry>
        </mxCell>
        <mxCell id="XlU7eiJMvj6CBkXYbZNx-122" style="edgeStyle=orthogonalEdgeStyle;rounded=0;orthogonalLoop=1;jettySize=auto;html=1;exitX=0;exitY=1;exitDx=0;exitDy=0;entryX=0;entryY=0.75;entryDx=0;entryDy=0;entryPerimeter=0;" edge="1" parent="1" source="XlU7eiJMvj6CBkXYbZNx-75" target="XlU7eiJMvj6CBkXYbZNx-24">
          <mxGeometry relative="1" as="geometry">
            <Array as="points">
              <mxPoint x="280" y="117" />
              <mxPoint x="280" y="1040" />
            </Array>
          </mxGeometry>
        </mxCell>
        <mxCell id="XlU7eiJMvj6CBkXYbZNx-124" value="" style="endArrow=none;html=1;rounded=0;" edge="1" parent="1">
          <mxGeometry width="50" height="50" relative="1" as="geometry">
            <mxPoint x="280" y="650" as="sourcePoint" />
            <mxPoint x="70" y="650" as="targetPoint" />
          </mxGeometry>
        </mxCell>
        <mxCell id="XlU7eiJMvj6CBkXYbZNx-125" value="" style="endArrow=none;html=1;rounded=0;" edge="1" parent="1">
          <mxGeometry width="50" height="50" relative="1" as="geometry">
            <mxPoint x="70" y="520" as="sourcePoint" />
            <mxPoint x="250" y="520" as="targetPoint" />
          </mxGeometry>
        </mxCell>
        <mxCell id="XlU7eiJMvj6CBkXYbZNx-126" value="" style="endArrow=none;html=1;rounded=0;" edge="1" parent="1">
          <mxGeometry width="50" height="50" relative="1" as="geometry">
            <mxPoint x="70" y="660" as="sourcePoint" />
            <mxPoint x="80" y="840" as="targetPoint" />
          </mxGeometry>
        </mxCell>
        <mxCell id="XlU7eiJMvj6CBkXYbZNx-127" value="" style="endArrow=none;html=1;rounded=0;" edge="1" parent="1">
          <mxGeometry width="50" height="50" relative="1" as="geometry">
            <mxPoint x="70" y="840" as="sourcePoint" />
            <mxPoint x="310" y="840" as="targetPoint" />
          </mxGeometry>
        </mxCell>
        <mxCell id="XlU7eiJMvj6CBkXYbZNx-128" value="num[1]" style="text;strokeColor=none;fillColor=none;html=1;fontSize=24;fontStyle=1;verticalAlign=middle;align=center;" vertex="1" parent="1">
          <mxGeometry x="80" y="590" width="100" height="40" as="geometry" />
        </mxCell>
        <mxCell id="XlU7eiJMvj6CBkXYbZNx-130" value="num[3]" style="text;strokeColor=none;fillColor=none;html=1;fontSize=24;fontStyle=1;verticalAlign=middle;align=center;" vertex="1" parent="1">
          <mxGeometry x="70" y="330" width="100" height="40" as="geometry" />
        </mxCell>
        <mxCell id="XlU7eiJMvj6CBkXYbZNx-132" value="num[2]" style="text;strokeColor=none;fillColor=none;html=1;fontSize=24;fontStyle=1;verticalAlign=middle;align=center;" vertex="1" parent="1">
          <mxGeometry x="70" y="470" width="100" height="40" as="geometry" />
        </mxCell>
        <mxCell id="XlU7eiJMvj6CBkXYbZNx-135" value="num[0]" style="text;strokeColor=none;fillColor=none;html=1;fontSize=24;fontStyle=1;verticalAlign=middle;align=center;" vertex="1" parent="1">
          <mxGeometry x="90" y="780" width="100" height="40" as="geometry" />
        </mxCell>
        <mxCell id="XlU7eiJMvj6CBkXYbZNx-141" style="edgeStyle=orthogonalEdgeStyle;rounded=0;orthogonalLoop=1;jettySize=auto;html=1;exitX=1;exitY=0.5;exitDx=0;exitDy=0;exitPerimeter=0;entryX=0.084;entryY=0.221;entryDx=0;entryDy=0;entryPerimeter=0;" edge="1" parent="1" source="XlU7eiJMvj6CBkXYbZNx-13" target="XlU7eiJMvj6CBkXYbZNx-43">
          <mxGeometry relative="1" as="geometry">
            <Array as="points">
              <mxPoint x="640" y="100" />
              <mxPoint x="640" y="209" />
            </Array>
          </mxGeometry>
        </mxCell>
        <mxCell id="XlU7eiJMvj6CBkXYbZNx-142" style="edgeStyle=orthogonalEdgeStyle;rounded=0;orthogonalLoop=1;jettySize=auto;html=1;exitX=1;exitY=0.5;exitDx=0;exitDy=0;exitPerimeter=0;entryX=0.25;entryY=0.5;entryDx=0;entryDy=0;entryPerimeter=0;" edge="1" parent="1" source="XlU7eiJMvj6CBkXYbZNx-14" target="XlU7eiJMvj6CBkXYbZNx-43">
          <mxGeometry relative="1" as="geometry" />
        </mxCell>
        <mxCell id="XlU7eiJMvj6CBkXYbZNx-143" style="edgeStyle=orthogonalEdgeStyle;rounded=0;orthogonalLoop=1;jettySize=auto;html=1;exitX=1;exitY=0.5;exitDx=0;exitDy=0;exitPerimeter=0;entryX=0.273;entryY=0.615;entryDx=0;entryDy=0;entryPerimeter=0;" edge="1" parent="1" source="XlU7eiJMvj6CBkXYbZNx-16" target="XlU7eiJMvj6CBkXYbZNx-43">
          <mxGeometry relative="1" as="geometry" />
        </mxCell>
        <mxCell id="XlU7eiJMvj6CBkXYbZNx-144" style="edgeStyle=orthogonalEdgeStyle;rounded=0;orthogonalLoop=1;jettySize=auto;html=1;exitX=1;exitY=0.5;exitDx=0;exitDy=0;exitPerimeter=0;entryX=0.175;entryY=0.75;entryDx=0;entryDy=0;entryPerimeter=0;" edge="1" parent="1" source="XlU7eiJMvj6CBkXYbZNx-18" target="XlU7eiJMvj6CBkXYbZNx-43">
          <mxGeometry relative="1" as="geometry">
            <Array as="points">
              <mxPoint x="640" y="400" />
              <mxPoint x="640" y="278" />
            </Array>
          </mxGeometry>
        </mxCell>
        <mxCell id="XlU7eiJMvj6CBkXYbZNx-167" style="edgeStyle=orthogonalEdgeStyle;rounded=0;orthogonalLoop=1;jettySize=auto;html=1;exitX=0.5;exitY=1;exitDx=0;exitDy=0;entryX=1.126;entryY=-0.119;entryDx=0;entryDy=0;entryPerimeter=0;" edge="1" parent="1" source="XlU7eiJMvj6CBkXYbZNx-83" target="XlU7eiJMvj6CBkXYbZNx-135">
          <mxGeometry relative="1" as="geometry">
            <Array as="points">
              <mxPoint x="450" y="780" />
              <mxPoint x="315" y="780" />
              <mxPoint x="315" y="775" />
            </Array>
          </mxGeometry>
        </mxCell>
        <mxCell id="XlU7eiJMvj6CBkXYbZNx-177" style="edgeStyle=orthogonalEdgeStyle;rounded=0;orthogonalLoop=1;jettySize=auto;html=1;exitX=1;exitY=0.5;exitDx=0;exitDy=0;exitPerimeter=0;entryX=0.043;entryY=0.143;entryDx=0;entryDy=0;entryPerimeter=0;" edge="1" parent="1" source="XlU7eiJMvj6CBkXYbZNx-19" target="XlU7eiJMvj6CBkXYbZNx-44">
          <mxGeometry relative="1" as="geometry">
            <Array as="points">
              <mxPoint x="610" y="520" />
              <mxPoint x="610" y="609" />
            </Array>
          </mxGeometry>
        </mxCell>
        <mxCell id="XlU7eiJMvj6CBkXYbZNx-178" style="edgeStyle=orthogonalEdgeStyle;rounded=0;orthogonalLoop=1;jettySize=auto;html=1;exitX=1;exitY=0.5;exitDx=0;exitDy=0;exitPerimeter=0;entryX=0.155;entryY=0.356;entryDx=0;entryDy=0;entryPerimeter=0;" edge="1" parent="1" source="XlU7eiJMvj6CBkXYbZNx-20" target="XlU7eiJMvj6CBkXYbZNx-44">
          <mxGeometry relative="1" as="geometry" />
        </mxCell>
        <mxCell id="XlU7eiJMvj6CBkXYbZNx-179" style="edgeStyle=orthogonalEdgeStyle;rounded=0;orthogonalLoop=1;jettySize=auto;html=1;exitX=1;exitY=0.5;exitDx=0;exitDy=0;exitPerimeter=0;entryX=0.25;entryY=0.5;entryDx=0;entryDy=0;entryPerimeter=0;" edge="1" parent="1" source="XlU7eiJMvj6CBkXYbZNx-21" target="XlU7eiJMvj6CBkXYbZNx-44">
          <mxGeometry relative="1" as="geometry" />
        </mxCell>
        <mxCell id="XlU7eiJMvj6CBkXYbZNx-180" style="edgeStyle=orthogonalEdgeStyle;rounded=0;orthogonalLoop=1;jettySize=auto;html=1;exitX=1;exitY=0.5;exitDx=0;exitDy=0;exitPerimeter=0;entryX=0.175;entryY=0.75;entryDx=0;entryDy=0;entryPerimeter=0;" edge="1" parent="1" source="XlU7eiJMvj6CBkXYbZNx-22" target="XlU7eiJMvj6CBkXYbZNx-44">
          <mxGeometry relative="1" as="geometry">
            <Array as="points">
              <mxPoint x="630" y="820" />
              <mxPoint x="630" y="688" />
            </Array>
          </mxGeometry>
        </mxCell>
        <mxCell id="XlU7eiJMvj6CBkXYbZNx-182" style="edgeStyle=orthogonalEdgeStyle;rounded=0;orthogonalLoop=1;jettySize=auto;html=1;exitX=1;exitY=0.5;exitDx=0;exitDy=0;exitPerimeter=0;entryX=0.438;entryY=0.815;entryDx=0;entryDy=0;entryPerimeter=0;" edge="1" parent="1" source="XlU7eiJMvj6CBkXYbZNx-43" target="XlU7eiJMvj6CBkXYbZNx-55">
          <mxGeometry relative="1" as="geometry" />
        </mxCell>
        <mxCell id="XlU7eiJMvj6CBkXYbZNx-183" style="edgeStyle=orthogonalEdgeStyle;rounded=0;orthogonalLoop=1;jettySize=auto;html=1;exitX=1;exitY=0.5;exitDx=0;exitDy=0;exitPerimeter=0;entryX=0.175;entryY=0.25;entryDx=0;entryDy=0;entryPerimeter=0;" edge="1" parent="1" source="XlU7eiJMvj6CBkXYbZNx-23" target="XlU7eiJMvj6CBkXYbZNx-45">
          <mxGeometry relative="1" as="geometry" />
        </mxCell>
        <mxCell id="XlU7eiJMvj6CBkXYbZNx-184" style="edgeStyle=orthogonalEdgeStyle;rounded=0;orthogonalLoop=1;jettySize=auto;html=1;exitX=1;exitY=0.5;exitDx=0;exitDy=0;exitPerimeter=0;entryX=0.205;entryY=0.382;entryDx=0;entryDy=0;entryPerimeter=0;" edge="1" parent="1" source="XlU7eiJMvj6CBkXYbZNx-24" target="XlU7eiJMvj6CBkXYbZNx-45">
          <mxGeometry relative="1" as="geometry" />
        </mxCell>
        <mxCell id="XlU7eiJMvj6CBkXYbZNx-186" style="edgeStyle=orthogonalEdgeStyle;rounded=0;orthogonalLoop=1;jettySize=auto;html=1;exitX=1;exitY=0.5;exitDx=0;exitDy=0;exitPerimeter=0;entryX=0.245;entryY=0.638;entryDx=0;entryDy=0;entryPerimeter=0;" edge="1" parent="1" source="XlU7eiJMvj6CBkXYbZNx-25" target="XlU7eiJMvj6CBkXYbZNx-45">
          <mxGeometry relative="1" as="geometry">
            <Array as="points">
              <mxPoint x="520" y="1040" />
              <mxPoint x="707" y="1040" />
            </Array>
          </mxGeometry>
        </mxCell>
        <mxCell id="XlU7eiJMvj6CBkXYbZNx-190" value="" style="endArrow=none;html=1;rounded=0;" edge="1" parent="1">
          <mxGeometry width="50" height="50" relative="1" as="geometry">
            <mxPoint x="-10" y="680" as="sourcePoint" />
            <mxPoint x="40" y="630" as="targetPoint" />
          </mxGeometry>
        </mxCell>
        <mxCell id="XlU7eiJMvj6CBkXYbZNx-191" value="4" style="text;strokeColor=none;fillColor=none;html=1;fontSize=24;fontStyle=1;verticalAlign=middle;align=center;" vertex="1" parent="1">
          <mxGeometry x="-30" y="710" width="100" height="40" as="geometry" />
        </mxCell>
        <mxCell id="XlU7eiJMvj6CBkXYbZNx-192" value="" style="endArrow=none;html=1;rounded=0;" edge="1" parent="1">
          <mxGeometry width="50" height="50" relative="1" as="geometry">
            <mxPoint x="1210" y="840" as="sourcePoint" />
            <mxPoint x="1210" y="410" as="targetPoint" />
          </mxGeometry>
        </mxCell>
        <mxCell id="XlU7eiJMvj6CBkXYbZNx-193" value="" style="endArrow=none;html=1;rounded=0;" edge="1" parent="1">
          <mxGeometry width="50" height="50" relative="1" as="geometry">
            <mxPoint x="20" y="660" as="sourcePoint" />
            <mxPoint x="1220" y="640" as="targetPoint" />
            <Array as="points">
              <mxPoint x="30" y="1220" />
              <mxPoint x="1050" y="1210" />
              <mxPoint x="1050" y="640" />
            </Array>
          </mxGeometry>
        </mxCell>
        <mxCell id="XlU7eiJMvj6CBkXYbZNx-195" style="edgeStyle=orthogonalEdgeStyle;rounded=0;orthogonalLoop=1;jettySize=auto;html=1;exitX=0;exitY=0;exitDx=0;exitDy=0;entryX=0;entryY=0.5;entryDx=0;entryDy=0;entryPerimeter=0;" edge="1" parent="1" source="XlU7eiJMvj6CBkXYbZNx-91" target="XlU7eiJMvj6CBkXYbZNx-39">
          <mxGeometry relative="1" as="geometry">
            <Array as="points">
              <mxPoint x="1623" y="-60" />
              <mxPoint x="1320" y="-60" />
              <mxPoint x="1320" y="1280" />
            </Array>
          </mxGeometry>
        </mxCell>
        <mxCell id="XlU7eiJMvj6CBkXYbZNx-199" style="edgeStyle=orthogonalEdgeStyle;rounded=0;orthogonalLoop=1;jettySize=auto;html=1;exitX=0;exitY=0.5;exitDx=0;exitDy=0;entryX=0;entryY=0.75;entryDx=0;entryDy=0;entryPerimeter=0;" edge="1" parent="1" source="XlU7eiJMvj6CBkXYbZNx-91" target="XlU7eiJMvj6CBkXYbZNx-39">
          <mxGeometry relative="1" as="geometry">
            <Array as="points">
              <mxPoint x="1340" y="-50" />
              <mxPoint x="1340" y="1300" />
            </Array>
          </mxGeometry>
        </mxCell>
        <mxCell id="XlU7eiJMvj6CBkXYbZNx-200" style="edgeStyle=orthogonalEdgeStyle;rounded=0;orthogonalLoop=1;jettySize=auto;html=1;exitX=0;exitY=0.75;exitDx=0;exitDy=0;exitPerimeter=0;entryX=-0.021;entryY=0.948;entryDx=0;entryDy=0;entryPerimeter=0;" edge="1" parent="1" source="XlU7eiJMvj6CBkXYbZNx-26" target="XlU7eiJMvj6CBkXYbZNx-39">
          <mxGeometry relative="1" as="geometry">
            <Array as="points">
              <mxPoint x="1370" y="-40" />
              <mxPoint x="1370" y="1316" />
            </Array>
          </mxGeometry>
        </mxCell>
        <mxCell id="XlU7eiJMvj6CBkXYbZNx-201" value="" style="endArrow=none;html=1;rounded=0;" edge="1" parent="1">
          <mxGeometry width="50" height="50" relative="1" as="geometry">
            <mxPoint x="1210" y="410" as="sourcePoint" />
            <mxPoint x="1280" y="410" as="targetPoint" />
          </mxGeometry>
        </mxCell>
        <mxCell id="XlU7eiJMvj6CBkXYbZNx-202" value="" style="endArrow=none;html=1;rounded=0;" edge="1" parent="1">
          <mxGeometry width="50" height="50" relative="1" as="geometry">
            <mxPoint x="1210" y="560" as="sourcePoint" />
            <mxPoint x="1320" y="560" as="targetPoint" />
          </mxGeometry>
        </mxCell>
        <mxCell id="XlU7eiJMvj6CBkXYbZNx-203" value="" style="endArrow=none;html=1;rounded=0;" edge="1" parent="1">
          <mxGeometry width="50" height="50" relative="1" as="geometry">
            <mxPoint x="1210" y="700" as="sourcePoint" />
            <mxPoint x="1340" y="700" as="targetPoint" />
          </mxGeometry>
        </mxCell>
        <mxCell id="XlU7eiJMvj6CBkXYbZNx-204" value="" style="endArrow=none;html=1;rounded=0;" edge="1" parent="1">
          <mxGeometry width="50" height="50" relative="1" as="geometry">
            <mxPoint x="1210" y="840" as="sourcePoint" />
            <mxPoint x="1370" y="840" as="targetPoint" />
          </mxGeometry>
        </mxCell>
        <mxCell id="XlU7eiJMvj6CBkXYbZNx-207" value="num[3]" style="text;strokeColor=none;fillColor=none;html=1;fontSize=24;fontStyle=1;verticalAlign=middle;align=center;" vertex="1" parent="1">
          <mxGeometry x="1170" y="320" width="100" height="40" as="geometry" />
        </mxCell>
        <mxCell id="XlU7eiJMvj6CBkXYbZNx-209" value="num[2]" style="text;strokeColor=none;fillColor=none;html=1;fontSize=24;fontStyle=1;verticalAlign=middle;align=center;" vertex="1" parent="1">
          <mxGeometry x="1080" y="510" width="100" height="40" as="geometry" />
        </mxCell>
        <mxCell id="XlU7eiJMvj6CBkXYbZNx-210" value="num[1]" style="text;strokeColor=none;fillColor=none;html=1;fontSize=24;fontStyle=1;verticalAlign=middle;align=center;" vertex="1" parent="1">
          <mxGeometry x="1080" y="690" width="100" height="40" as="geometry" />
        </mxCell>
        <mxCell id="XlU7eiJMvj6CBkXYbZNx-211" value="num[0]" style="text;strokeColor=none;fillColor=none;html=1;fontSize=24;fontStyle=1;verticalAlign=middle;align=center;" vertex="1" parent="1">
          <mxGeometry x="1090" y="810" width="100" height="40" as="geometry" />
        </mxCell>
        <mxCell id="XlU7eiJMvj6CBkXYbZNx-254" style="edgeStyle=orthogonalEdgeStyle;rounded=0;orthogonalLoop=1;jettySize=auto;html=1;exitX=1;exitY=0.5;exitDx=0;exitDy=0;exitPerimeter=0;entryX=0.194;entryY=0.487;entryDx=0;entryDy=0;entryPerimeter=0;" edge="1" parent="1" source="XlU7eiJMvj6CBkXYbZNx-27" target="XlU7eiJMvj6CBkXYbZNx-46">
          <mxGeometry relative="1" as="geometry" />
        </mxCell>
        <mxCell id="XlU7eiJMvj6CBkXYbZNx-255" style="edgeStyle=orthogonalEdgeStyle;rounded=0;orthogonalLoop=1;jettySize=auto;html=1;exitX=1;exitY=0.5;exitDx=0;exitDy=0;exitPerimeter=0;entryX=0.175;entryY=0.25;entryDx=0;entryDy=0;entryPerimeter=0;" edge="1" parent="1" source="XlU7eiJMvj6CBkXYbZNx-26" target="XlU7eiJMvj6CBkXYbZNx-46">
          <mxGeometry relative="1" as="geometry">
            <Array as="points">
              <mxPoint x="1780" y="-60" />
              <mxPoint x="1780" y="33" />
            </Array>
          </mxGeometry>
        </mxCell>
        <mxCell id="XlU7eiJMvj6CBkXYbZNx-256" style="edgeStyle=orthogonalEdgeStyle;rounded=0;orthogonalLoop=1;jettySize=auto;html=1;exitX=1;exitY=0.5;exitDx=0;exitDy=0;exitPerimeter=0;entryX=0.176;entryY=0.692;entryDx=0;entryDy=0;entryPerimeter=0;" edge="1" parent="1" source="XlU7eiJMvj6CBkXYbZNx-28" target="XlU7eiJMvj6CBkXYbZNx-46">
          <mxGeometry relative="1" as="geometry" />
        </mxCell>
        <mxCell id="XlU7eiJMvj6CBkXYbZNx-257" style="edgeStyle=orthogonalEdgeStyle;rounded=0;orthogonalLoop=1;jettySize=auto;html=1;exitX=1;exitY=0.5;exitDx=0;exitDy=0;exitPerimeter=0;entryX=0.073;entryY=0.867;entryDx=0;entryDy=0;entryPerimeter=0;" edge="1" parent="1" source="XlU7eiJMvj6CBkXYbZNx-29" target="XlU7eiJMvj6CBkXYbZNx-46">
          <mxGeometry relative="1" as="geometry">
            <Array as="points">
              <mxPoint x="1800" y="230" />
              <mxPoint x="1800" y="113" />
            </Array>
          </mxGeometry>
        </mxCell>
        <mxCell id="XlU7eiJMvj6CBkXYbZNx-259" style="edgeStyle=orthogonalEdgeStyle;rounded=0;orthogonalLoop=1;jettySize=auto;html=1;exitX=1;exitY=0.5;exitDx=0;exitDy=0;exitPerimeter=0;entryX=0.175;entryY=0.25;entryDx=0;entryDy=0;entryPerimeter=0;" edge="1" parent="1" source="XlU7eiJMvj6CBkXYbZNx-30" target="XlU7eiJMvj6CBkXYbZNx-47">
          <mxGeometry relative="1" as="geometry" />
        </mxCell>
        <mxCell id="XlU7eiJMvj6CBkXYbZNx-260" style="edgeStyle=orthogonalEdgeStyle;rounded=0;orthogonalLoop=1;jettySize=auto;html=1;exitX=1;exitY=0.5;exitDx=0;exitDy=0;exitPerimeter=0;entryX=0.25;entryY=0.5;entryDx=0;entryDy=0;entryPerimeter=0;" edge="1" parent="1" source="XlU7eiJMvj6CBkXYbZNx-31" target="XlU7eiJMvj6CBkXYbZNx-47">
          <mxGeometry relative="1" as="geometry" />
        </mxCell>
        <mxCell id="XlU7eiJMvj6CBkXYbZNx-261" style="edgeStyle=orthogonalEdgeStyle;rounded=0;orthogonalLoop=1;jettySize=auto;html=1;exitX=1;exitY=0.5;exitDx=0;exitDy=0;exitPerimeter=0;entryX=0.175;entryY=0.75;entryDx=0;entryDy=0;entryPerimeter=0;" edge="1" parent="1" source="XlU7eiJMvj6CBkXYbZNx-32" target="XlU7eiJMvj6CBkXYbZNx-47">
          <mxGeometry relative="1" as="geometry">
            <Array as="points">
              <mxPoint x="1780" y="540" />
              <mxPoint x="1780" y="458" />
            </Array>
          </mxGeometry>
        </mxCell>
        <mxCell id="XlU7eiJMvj6CBkXYbZNx-263" style="edgeStyle=orthogonalEdgeStyle;rounded=0;orthogonalLoop=1;jettySize=auto;html=1;exitX=1;exitY=0.5;exitDx=0;exitDy=0;exitPerimeter=0;entryX=0.175;entryY=0.25;entryDx=0;entryDy=0;entryPerimeter=0;" edge="1" parent="1" source="XlU7eiJMvj6CBkXYbZNx-33" target="XlU7eiJMvj6CBkXYbZNx-48">
          <mxGeometry relative="1" as="geometry">
            <Array as="points">
              <mxPoint x="1760" y="650" />
              <mxPoint x="1760" y="743" />
            </Array>
          </mxGeometry>
        </mxCell>
        <mxCell id="XlU7eiJMvj6CBkXYbZNx-264" style="edgeStyle=orthogonalEdgeStyle;rounded=0;orthogonalLoop=1;jettySize=auto;html=1;exitX=1;exitY=0.5;exitDx=0;exitDy=0;exitPerimeter=0;entryX=0.194;entryY=0.451;entryDx=0;entryDy=0;entryPerimeter=0;" edge="1" parent="1" source="XlU7eiJMvj6CBkXYbZNx-34" target="XlU7eiJMvj6CBkXYbZNx-48">
          <mxGeometry relative="1" as="geometry" />
        </mxCell>
        <mxCell id="XlU7eiJMvj6CBkXYbZNx-265" style="edgeStyle=orthogonalEdgeStyle;rounded=0;orthogonalLoop=1;jettySize=auto;html=1;exitX=1;exitY=0.5;exitDx=0;exitDy=0;exitPerimeter=0;entryX=0.182;entryY=0.579;entryDx=0;entryDy=0;entryPerimeter=0;" edge="1" parent="1" source="XlU7eiJMvj6CBkXYbZNx-35" target="XlU7eiJMvj6CBkXYbZNx-48">
          <mxGeometry relative="1" as="geometry" />
        </mxCell>
        <mxCell id="XlU7eiJMvj6CBkXYbZNx-266" style="edgeStyle=orthogonalEdgeStyle;rounded=0;orthogonalLoop=1;jettySize=auto;html=1;exitX=1;exitY=0.5;exitDx=0;exitDy=0;exitPerimeter=0;entryX=0.175;entryY=0.75;entryDx=0;entryDy=0;entryPerimeter=0;" edge="1" parent="1" source="XlU7eiJMvj6CBkXYbZNx-36" target="XlU7eiJMvj6CBkXYbZNx-48">
          <mxGeometry relative="1" as="geometry">
            <Array as="points">
              <mxPoint x="1800" y="960" />
              <mxPoint x="1800" y="808" />
            </Array>
          </mxGeometry>
        </mxCell>
        <mxCell id="XlU7eiJMvj6CBkXYbZNx-268" style="edgeStyle=orthogonalEdgeStyle;rounded=0;orthogonalLoop=1;jettySize=auto;html=1;exitX=1;exitY=0.5;exitDx=0;exitDy=0;exitPerimeter=0;entryX=0.175;entryY=0.25;entryDx=0;entryDy=0;entryPerimeter=0;" edge="1" parent="1" source="XlU7eiJMvj6CBkXYbZNx-37" target="XlU7eiJMvj6CBkXYbZNx-49">
          <mxGeometry relative="1" as="geometry" />
        </mxCell>
        <mxCell id="XlU7eiJMvj6CBkXYbZNx-269" style="edgeStyle=orthogonalEdgeStyle;rounded=0;orthogonalLoop=1;jettySize=auto;html=1;exitX=1;exitY=0.5;exitDx=0;exitDy=0;exitPerimeter=0;entryX=0.25;entryY=0.5;entryDx=0;entryDy=0;entryPerimeter=0;" edge="1" parent="1" source="XlU7eiJMvj6CBkXYbZNx-38" target="XlU7eiJMvj6CBkXYbZNx-49">
          <mxGeometry relative="1" as="geometry" />
        </mxCell>
        <mxCell id="XlU7eiJMvj6CBkXYbZNx-270" style="edgeStyle=orthogonalEdgeStyle;rounded=0;orthogonalLoop=1;jettySize=auto;html=1;exitX=1;exitY=0.5;exitDx=0;exitDy=0;exitPerimeter=0;entryX=0.175;entryY=0.75;entryDx=0;entryDy=0;entryPerimeter=0;" edge="1" parent="1" source="XlU7eiJMvj6CBkXYbZNx-39" target="XlU7eiJMvj6CBkXYbZNx-49">
          <mxGeometry relative="1" as="geometry">
            <Array as="points">
              <mxPoint x="1800" y="1280" />
              <mxPoint x="1800" y="1168" />
            </Array>
          </mxGeometry>
        </mxCell>
      </root>
    </mxGraphModel>
  </diagram>
</mxfile>
